<?xml version="1.0" encoding="UTF-8" standalone="no"?>
<!-- Created with Inkscape (http://www.inkscape.org/) -->

<svg
   xmlns:dc="http://purl.org/dc/elements/1.1/"
   xmlns:cc="http://creativecommons.org/ns#"
   xmlns:rdf="http://www.w3.org/1999/02/22-rdf-syntax-ns#"
   xmlns:svg="http://www.w3.org/2000/svg"
   xmlns="http://www.w3.org/2000/svg"
   xmlns:sodipodi="http://sodipodi.sourceforge.net/DTD/sodipodi-0.dtd"
   xmlns:inkscape="http://www.inkscape.org/namespaces/inkscape"
   id="svg2"
   version="1.1"
   inkscape:version="0.91 r13725"
   xml:space="preserve"
   width="312.64999"
   height="114.9375"
   viewBox="0 0 312.64999 114.9375"
   sodipodi:docname="AndersonCo_Hz_2clr.svg"><metadata
     id="metadata8"><rdf:RDF><cc:Work
         rdf:about=""><dc:format>image/svg+xml</dc:format><dc:type
           rdf:resource="http://purl.org/dc/dcmitype/StillImage" /><dc:title></dc:title></cc:Work></rdf:RDF></metadata><defs
     id="defs6" /><sodipodi:namedview
     pagecolor="#ffffff"
     bordercolor="#666666"
     borderopacity="1"
     objecttolerance="10"
     gridtolerance="10"
     guidetolerance="10"
     inkscape:pageopacity="0"
     inkscape:pageshadow="2"
     inkscape:window-width="1920"
     inkscape:window-height="1051"
     id="namedview4"
     showgrid="false"
     inkscape:zoom="3.446764"
     inkscape:cx="177.9345"
     inkscape:cy="78.658959"
     inkscape:window-x="0"
     inkscape:window-y="0"
     inkscape:window-maximized="1"
     inkscape:current-layer="g10" /><g
     id="g10"
     inkscape:groupmode="layer"
     inkscape:label="ink_ext_XXXXXX"
     transform="matrix(1.25,0,0,-1.25,0,114.9375)"><g
       id="g12"
       transform="scale(0.1,0.1)"><path
         d="m 273.84,605.949 c -1.578,21.66 14.711,40.512 36.371,42.078 21.68,1.582 40.527,-14.718 42.098,-36.386 1.582,-21.672 -14.719,-40.512 -36.387,-42.082 -21.66,-1.559 -40.512,14.711 -42.082,36.39"
         style="fill:#155195;fill-opacity:1;fill-rule:nonzero;stroke:none"
         id="path14"
         inkscape:connector-curvature="0" /><path
         d="m 735.551,605.949 c 1.578,21.66 -14.723,40.512 -36.379,42.078 -21.692,1.582 -40.524,-14.718 -42.102,-36.386 -1.57,-21.672 14.731,-40.512 36.379,-42.082 21.68,-1.559 40.531,14.711 42.102,36.39"
         style="fill:#155195;fill-opacity:1;fill-rule:nonzero;stroke:none"
         id="path16"
         inkscape:connector-curvature="0" /><path
         d="m 865.16,544.27 c -4.629,17.058 -28.18,19.648 -48.941,14.25 -16.399,-4.27 -73.43,-20.102 -124.071,-16.43 -36.367,2.629 -71.949,32.91 -94.07,53.621 21.981,25.34 50.344,52.539 56.852,60.148 9.398,10.961 10.961,28.18 3.129,36.008 -7.821,7.821 -21.911,3.102 -36,-6.289 C 608,676.199 554.77,622.609 504,622.609 c -50.75,0 -105.719,53.59 -119.809,62.969 -14.089,9.391 -34.441,7.82 -42.269,0 -7.82,-7.82 0.019,-18.758 9.418,-29.719 6.648,-7.781 36.07,-35.98 58.23,-61.769 -22.23,-20.629 -56.898,-49.442 -92.34,-52 -50.628,-3.672 -107.679,12.16 -124.058,16.43 -20.774,5.398 -44.313,2.808 -48.953,-14.25 -2.899,-10.672 6.152,-22.411 18.312,-30.34 12.098,-7.903 74.828,-20.09 92.469,-47.071 17.641,-26.968 20.328,-235.621 36.762,-242.621 11.976,-5.109 32.867,-5.109 44.218,0.672 15.918,8.07 42.782,235.719 56.329,264.957 7.5,16.133 26.382,40.274 43.23,60.613 14.5,-67.992 30.383,-321.269 45.672,-326.562 11.559,-3.988 34.578,-3.988 43.828,0 15.082,6.531 31.59,266.48 46.332,329.551 17.438,-20.918 37.828,-46.66 45.699,-63.602 13.559,-29.238 40.41,-256.887 56.321,-264.957 11.359,-5.781 32.238,-5.781 44.23,-0.672 16.418,7 19.109,215.653 36.758,242.621 17.652,26.981 80.371,39.168 92.461,47.071 12.172,7.929 21.211,19.668 18.32,30.34"
         style="fill:#155195;fill-opacity:1;fill-rule:nonzero;stroke:none"
         id="path18"
         inkscape:connector-curvature="0" /><path
         d="m 465.352,689.449 c 0,21.731 17.609,39.328 39.347,39.328 21.699,0 39.34,-17.597 39.34,-39.328 0,-21.73 -17.641,-39.34 -39.34,-39.34 -21.738,0 -39.347,17.61 -39.347,39.34"
         style="fill:#155195;fill-opacity:1;fill-rule:nonzero;stroke:none"
         id="path20"
         inkscape:connector-curvature="0" /><path
         d="M 873.012,686.668 C 892.129,656.328 852.09,644.949 821.512,651.93 795.891,657.77 544.719,792.078 507.051,795.539 469.52,798.961 243.57,660.039 218.672,646.719 182.078,627.16 149.77,629.02 115.988,646.539 104.84,652.348 18.7695,697.789 0,710.469 18.7695,728 280,884.84 310.41,900.078 c 34.981,17.551 55.828,26.75 94.289,12.391 26.672,-9.989 460.379,-213.25 468.313,-225.801"
         style="fill:#4fbe37;fill-opacity:1;fill-rule:nonzero;stroke:none"
         id="path22"
         inkscape:connector-curvature="0" /><path
         d="m 99.0898,491.848 c 9.7812,-1.45 55.9692,-21.348 74.2622,-30.77 43.968,-22.648 46.25,-45.16 51.269,-81.801 5.348,-39.047 9.957,-111.789 10.731,-139.347 -18.403,7.89 -90.442,68.179 -107.641,83.039 -13.32,11.551 -28.2305,19.789 -28.1993,37.691 0.0196,6.828 -3.1211,114.391 -0.4219,131.188"
         style="fill:#4fbe37;fill-opacity:1;fill-rule:nonzero;stroke:none"
         id="path24"
         inkscape:connector-curvature="0" /><path
         d="m 2153.96,351.469 9.07,0 c 6.04,0 7.98,2.14 7.98,6.5 0,3.801 -2.85,5.929 -6.76,5.929 l -10.29,0 0,-12.429 z m 0,-21.391 -5.52,0 0,38.449 14.66,0 c 8.98,0 13.41,-3.629 13.41,-10.929 0,-6.93 -4.53,-9.848 -10.02,-10.571 l 11.09,-16.949 -6.12,0 -10.41,16.781 -7.09,0 0,-16.781 z m 7.18,-8.969 c 15.3,0 27.1,12.079 27.1,28.051 0,15.738 -11.8,27.899 -27.1,27.899 -15.53,0 -27.25,-12.161 -27.25,-27.899 0,-15.972 11.72,-28.051 27.25,-28.051 m 0,60.911 c 18.05,0 33.14,-14.2 33.14,-32.86 0,-18.832 -15.09,-33.031 -33.14,-33.031 -18.08,0 -33.29,14.199 -33.29,33.031 0,18.66 15.21,32.86 33.29,32.86"
         style="fill:#155195;fill-opacity:1;fill-rule:nonzero;stroke:none"
         id="path26"
         inkscape:connector-curvature="0" /><path
         d="m 1047.55,705.43 c -1.57,-19.332 -1.96,-41.813 -1.96,-65.871 l 0,-45.379 c 8.68,-0.403 17.35,-0.789 29.98,-0.789 12.63,0 21.3,0.386 29.97,0.789 l 0,45.379 c 0,24.058 -0.39,46.539 -1.96,65.871 l 74.56,0 c -3.93,-40.629 -3.93,-73.782 -3.93,-140.84 0,-67.063 0,-100.211 3.93,-140.852 l -74.56,0 c 1.57,19.321 1.96,41.84 1.96,65.879 l 0,57.602 c -8.67,0.398 -17.34,0.801 -29.97,0.801 -12.63,0 -21.3,-0.403 -29.98,-0.801 l 0,-57.602 c 0,-24.039 0.39,-46.558 1.96,-65.879 l -74.57,0 c 3.95,40.641 3.95,73.789 3.95,140.852 0,67.058 0,100.211 -3.95,140.84 l 74.57,0"
         style="fill:#155195;fill-opacity:1;fill-rule:nonzero;stroke:none"
         id="path28"
         inkscape:connector-curvature="0" /><path
         d="m 1298.07,526.328 c -24.83,-6.32 -40.24,-21.711 -40.24,-41.43 0,-13.82 8.69,-24.46 21.32,-24.46 8.27,0 16.55,5.14 18.92,8.679 l 0,57.211 z m -85.61,97.84 c 5.52,0.781 26.84,3.141 41.43,3.141 81.67,0 106.53,-31.942 106.53,-84.809 l 0,-49.32 c 0,-18.93 0,-40.25 10.25,-69.442 l -62.72,0 c -4.73,6.321 -6.3,10.653 -6.73,12.231 -10.63,-7.891 -25.22,-15.371 -44.16,-15.371 -38.28,0 -63.15,26.422 -63.15,59.562 0,36.301 28.8,60.758 66.3,72.981 l 32.74,10.668 c -0.39,13.8 -9.46,25.64 -28.01,25.64 -12.63,0 -32.36,-5.91 -52.48,-20.511 l 0,55.23"
         style="fill:#155195;fill-opacity:1;fill-rule:nonzero;stroke:none"
         id="path30"
         inkscape:connector-curvature="0" /><path
         d="m 1458.45,478.969 c 0,-11.442 4.33,-20.5 16.96,-20.5 16.18,0 27.63,16.558 27.63,63.511 0,33.54 -8.71,62.329 -28.43,62.329 -10.64,0 -16.16,-6.7 -16.16,-16.161 l 0,-89.179 z m 0,226.461 0,-89.153 c 9.85,5.911 24.08,11.032 38.27,11.032 37.47,0 72.59,-27.598 72.59,-99.411 0,-55.628 -30.39,-108.878 -86.39,-108.878 -15.01,0 -32.37,5.109 -50.91,19.71 l -22.09,-18.929 -18.94,11.449 c 3.56,25.238 3.56,52.059 3.56,80.48 l 0,113.219 c 0,14.61 0,30.781 -3.95,80.481 l 67.86,0"
         style="fill:#155195;fill-opacity:1;fill-rule:nonzero;stroke:none"
         id="path32"
         inkscape:connector-curvature="0" /><path
         d="m 1658.27,622.57 c -0.77,-20.492 -0.77,-50.48 -0.77,-93.082 0,-53.668 0,-80.508 3.55,-105.75 l -71.03,0 c 3.56,25.242 3.56,52.082 3.56,80.5 l 0,37.86 c 0,28.422 0,55.23 -3.56,80.472 l 68.25,0 z m -32.73,85.641 c 19.72,0 35.51,-15.801 35.51,-35.523 0,-19.719 -15.79,-35.5 -35.51,-35.5 -19.74,0 -35.52,15.781 -35.52,35.5 0,19.722 15.78,35.523 35.52,35.523"
         style="fill:#155195;fill-opacity:1;fill-rule:nonzero;stroke:none"
         id="path34"
         inkscape:connector-curvature="0" /><path
         d="m 1767.17,682.949 c -0.79,-12.219 -1.2,-35.511 -1.2,-60.379 l 29.61,0 0,-37.851 -29.61,0 0,-99.43 c 0,-16.172 5.92,-25.25 21.71,-25.25 2.39,0 4.73,0 8.29,0.399 l 0,-35.508 c -13.02,-4.332 -26.42,-5.91 -39.84,-5.91 -17.75,0 -31.97,6.3 -42.63,18.929 -8.28,9.871 -11.43,26.43 -11.43,46.559 l 0,100.211 -22.88,0 0,37.851 22.88,0 c 0,24.868 -0.39,48.16 -1.19,60.379 l 66.29,0"
         style="fill:#155195;fill-opacity:1;fill-rule:nonzero;stroke:none"
         id="path36"
         inkscape:connector-curvature="0" /><path
         d="m 1919.96,526.328 c -24.87,-6.32 -40.25,-21.711 -40.25,-41.43 0,-13.82 8.69,-24.46 21.31,-24.46 8.28,0 16.57,5.14 18.94,8.679 l 0,57.211 z m -85.63,97.84 c 5.54,0.781 26.84,3.141 41.44,3.141 81.67,0 106.53,-31.942 106.53,-84.809 l 0,-49.32 c 0,-18.93 0,-40.25 10.25,-69.442 l -62.72,0 c -4.73,6.321 -6.32,10.653 -6.7,12.231 -10.66,-7.891 -25.28,-15.371 -44.21,-15.371 -38.27,0 -63.1,26.422 -63.1,59.562 0,36.301 28.8,60.758 66.25,72.981 l 32.77,10.668 c -0.41,13.8 -9.48,25.64 -28.02,25.64 -12.63,0 -32.35,-5.91 -52.49,-20.511 l 0,55.23"
         style="fill:#155195;fill-opacity:1;fill-rule:nonzero;stroke:none"
         id="path38"
         inkscape:connector-curvature="0" /><path
         d="m 2089.1,682.949 c -0.79,-12.219 -1.17,-35.511 -1.17,-60.379 l 29.57,0 0,-37.851 -29.57,0 0,-99.43 c 0,-16.172 5.9,-25.25 21.69,-25.25 2.37,0 4.73,0 8.27,0.399 l 0,-35.508 c -13.01,-4.332 -26.43,-5.91 -39.84,-5.91 -17.76,0 -31.96,6.3 -42.61,18.929 -8.28,9.871 -11.43,26.43 -11.43,46.559 l 0,100.211 -22.91,0 0,37.851 22.91,0 c 0,24.868 -0.41,48.16 -1.2,60.379 l 66.29,0"
         style="fill:#155195;fill-opacity:1;fill-rule:nonzero;stroke:none"
         id="path40"
         inkscape:connector-curvature="0" /><path
         d="m 1037.21,355.199 c -0.86,0.649 -3.64,2.149 -8.33,2.149 -8.98,0 -13.26,-6.828 -13.26,-14.118 0,-4.25 1.28,-8.55 2.14,-10.691 l 16.02,0 0,-20.5 -16.23,0 0,-43.609 c 0,-15.379 0,-29.91 1.92,-43.59 l -38.482,0 c 1.934,13.68 1.934,28.211 1.934,43.59 l 0,43.609 -11.75,0 0,20.5 11.75,0 0,8.352 c 0,12.617 2.137,21.148 12.199,29.488 8.539,6.84 19.219,9.191 28.619,9.191 5.14,0 10.69,-0.859 13.47,-1.929 l 0,-22.442"
         style="fill:#155195;fill-opacity:1;fill-rule:nonzero;stroke:none"
         id="path42"
         inkscape:connector-curvature="0" /><path
         d="m 1073.84,278.699 c 0,-25.859 5.55,-35.058 11.96,-35.058 6.43,0 11.96,9.199 11.96,35.058 0,25.852 -5.53,35.039 -11.96,35.039 -6.41,0 -11.96,-9.187 -11.96,-35.039 m 61.96,0 c 0,-36.34 -23.93,-56.422 -50,-56.422 -26.08,0 -50,20.082 -50,56.422 0,36.321 23.92,56.418 50,56.418 26.07,0 50,-20.097 50,-56.418"
         style="fill:#155195;fill-opacity:1;fill-rule:nonzero;stroke:none"
         id="path44"
         inkscape:connector-curvature="0" /><path
         d="m 1180.91,332.539 c 1.28,-3.84 2.78,-10.891 3,-14.301 7.47,10.02 16.46,16.879 27.13,16.879 2.36,0 3.64,-0.219 4.71,-0.648 l 0,-28.418 c -2.35,0.648 -5.34,0.859 -6.42,0.859 -16.25,0 -23.28,-14.972 -23.28,-38.48 0,-15.379 0,-29.91 1.92,-43.59 l -39.77,0 c 1.94,13.68 1.94,28.211 1.94,43.59 l 0,20.519 c 0,15.391 0,29.918 -3.63,43.59 l 34.4,0"
         style="fill:#155195;fill-opacity:1;fill-rule:nonzero;stroke:none"
         id="path46"
         inkscape:connector-curvature="0" /><path
         d="m 1329.66,377.43 c -0.87,-10.481 -1.07,-22.653 -1.07,-35.692 l 0,-24.57 c 4.7,-0.219 9.39,-0.43 16.24,-0.43 6.84,0 11.55,0.211 16.23,0.43 l 0,24.57 c 0,13.039 -0.18,25.211 -1.06,35.692 l 40.39,0 c -2.13,-22.012 -2.13,-39.95 -2.13,-76.289 0,-36.321 0,-54.301 2.13,-76.301 l -40.39,0 c 0.88,10.48 1.06,22.648 1.06,35.68 l 0,31.21 c -4.68,0.208 -9.39,0.438 -16.23,0.438 -6.85,0 -11.54,-0.23 -16.24,-0.438 l 0,-31.21 c 0,-13.032 0.2,-25.2 1.07,-35.68 l -40.38,0 c 2.12,22 2.12,39.98 2.12,76.301 0,36.339 0,54.277 -2.12,76.289 l 40.38,0"
         style="fill:#155195;fill-opacity:1;fill-rule:nonzero;stroke:none"
         id="path48"
         inkscape:connector-curvature="0" /><path
         d="m 1478.38,224.84 c -1.5,3.199 -2.57,6.82 -3.19,9.621 -7.93,-7.711 -16.05,-12.184 -27.14,-12.184 -18.19,0 -30.13,13.25 -30.13,33.774 l 0,32.898 c 0,15.391 0,29.918 -1.95,43.59 l 36.55,0 0,-71.59 c 0,-8.531 3.41,-13.461 9.62,-13.461 5.36,0 10.91,3.852 10.91,11.332 l 0,30.129 c 0,15.391 0,29.918 -1.92,43.59 l 38.45,0 c -1.93,-13.672 -1.93,-28.199 -1.93,-43.59 l 0,-20.519 c 0,-15.379 0,-29.91 1.93,-43.59 l -31.2,0"
         style="fill:#155195;fill-opacity:1;fill-rule:nonzero;stroke:none"
         id="path50"
         inkscape:connector-curvature="0" /><path
         d="m 1559.61,332.539 c 1.49,-3.199 2.55,-6.828 3.22,-9.59 7.9,7.25 17.52,12.168 28.2,12.168 11.55,0 18.8,-6.617 23.92,-13.679 7.72,6.82 16.26,13.679 30.15,13.679 20.95,0 28.86,-14.75 28.86,-35.906 l 0,-30.781 c 0,-15.379 0,-29.91 1.9,-43.59 l -38.43,0 c 1.9,13.68 1.9,28.211 1.9,43.59 l 0,29.711 c 0,7.488 -2.13,13.039 -8.74,13.039 -7.28,0 -11.35,-5.551 -11.35,-13.039 l 0,-29.711 c 0,-15.379 0,-29.91 1.93,-43.59 l -38.48,0 c 1.93,13.68 1.93,28.211 1.93,43.59 l 0,30.129 c 0,7.07 -2.14,12.621 -8.76,12.621 -6,0 -11.33,-4.922 -11.33,-11.332 l 0,-31.418 c 0,-15.379 0,-29.91 1.92,-43.59 l -38.47,0 c 1.92,13.68 1.92,28.211 1.92,43.59 l 0,20.519 c 0,15.391 0,29.918 -1.92,43.59 l 31.63,0"
         style="fill:#155195;fill-opacity:1;fill-rule:nonzero;stroke:none"
         id="path52"
         inkscape:connector-curvature="0" /><path
         d="m 1743,280.418 c -13.44,-3.43 -21.79,-11.777 -21.79,-22.457 0,-7.481 4.71,-13.25 11.56,-13.25 4.46,0 8.98,2.777 10.23,4.719 l 0,30.988 z m -46.36,53 c 3,0.402 14.53,1.699 22.46,1.699 44.24,0 57.69,-17.316 57.69,-45.957 l 0,-26.699 c 0,-10.262 0,-21.82 5.54,-37.621 l -33.96,0 c -2.55,3.41 -3.43,5.758 -3.62,6.629 -5.79,-4.289 -13.71,-8.34 -23.94,-8.34 -20.74,0 -34.22,14.332 -34.22,32.269 0,19.653 15.6,32.903 35.9,39.54 l 17.75,5.773 c -0.21,7.477 -5.15,13.898 -15.17,13.898 -6.84,0 -17.55,-3.218 -28.43,-11.129 l 0,29.938"
         style="fill:#155195;fill-opacity:1;fill-rule:nonzero;stroke:none"
         id="path54"
         inkscape:connector-curvature="0" /><path
         d="m 1823.34,332.539 c 1.49,-3.199 2.55,-6.828 3.2,-9.59 7.91,7.668 16.03,12.168 27.14,12.168 18.17,0 30.13,-13.238 30.13,-33.769 l 0,-32.918 c 0,-15.379 0,-29.91 1.94,-43.59 l -38.47,0 c 1.93,13.68 1.93,28.211 1.93,43.59 l 0,29.5 c 0,6.621 -2.79,11.961 -9.21,11.961 -5.32,0 -11.31,-3.84 -11.31,-10.25 l 0,-31.211 c 0,-15.379 0,-29.91 1.89,-43.59 l -38.43,0 c 1.9,13.68 1.9,28.211 1.9,43.59 l 0,20.519 c 0,15.391 0,29.918 -1.9,43.59 l 31.19,0"
         style="fill:#155195;fill-opacity:1;fill-rule:nonzero;stroke:none"
         id="path56"
         inkscape:connector-curvature="0" /><path
         d="m 1935.33,332.539 c -0.43,-11.101 -0.43,-27.351 -0.43,-50.422 0,-29.066 0,-43.597 1.93,-57.277 l -38.47,0 c 1.93,13.68 1.93,28.211 1.93,43.59 l 0,20.519 c 0,15.391 0,29.918 -1.93,43.59 l 36.97,0 z m -17.74,46.399 c 10.69,0 19.24,-8.559 19.24,-19.239 0,-10.699 -8.55,-19.238 -19.24,-19.238 -10.66,0 -19.23,8.539 -19.23,19.238 0,10.68 8.57,19.239 19.23,19.239"
         style="fill:#155195;fill-opacity:1;fill-rule:nonzero;stroke:none"
         id="path58"
         inkscape:connector-curvature="0" /><path
         d="m 1996.23,365.258 c -0.44,-6.641 -0.63,-19.25 -0.63,-32.719 l 16.02,0 0,-20.5 -16.02,0 0,-53.851 c 0,-8.758 3.2,-13.688 11.73,-13.688 1.3,0 2.58,0 4.5,0.211 l 0,-19.231 c -7.05,-2.351 -14.33,-3.203 -21.6,-3.203 -9.62,0 -17.31,3.411 -23.06,10.243 -4.5,5.371 -6.21,14.32 -6.21,25.23 l 0,54.289 -12.4,0 0,20.5 12.4,0 c 0,13.469 -0.21,26.078 -0.63,32.719 l 35.9,0"
         style="fill:#155195;fill-opacity:1;fill-rule:nonzero;stroke:none"
         id="path60"
         inkscape:connector-curvature="0" /><path
         d="m 2058.85,332.539 c 2.78,-16.66 10.89,-47 15.18,-60.898 l 0.42,0 c 5.98,21.808 10.49,46.367 12.4,60.898 l 30.55,0 c -7.04,-29.269 -23.08,-88.691 -36.75,-116.68 -7.06,-14.308 -17.74,-31.629 -47.02,-31.629 -2.98,0 -7.47,0.219 -10.24,1.071 l 0,27.347 c 1.9,-1.07 6.61,-3.199 11.96,-3.199 11.12,0 18.58,9.192 18.58,17.102 0,4.047 -0.85,6.617 -9.39,29.269 -11.55,30.348 -20.32,62.418 -22.65,76.719 l 36.96,0"
         style="fill:#155195;fill-opacity:1;fill-rule:nonzero;stroke:none"
         id="path62"
         inkscape:connector-curvature="0" /><path
         d="m 1007.99,111.633 c -9.545,0 -14.943,-15.4924 -14.943,-33.1369 0,-17.6484 5.398,-33.125 14.943,-33.125 9.54,0 14.94,15.4766 14.94,33.125 0,17.6445 -5.4,33.1369 -14.94,33.1369 z m 0,-80.6642 c -23.588,0 -36.552,24.3046 -36.552,47.5273 0,23.2309 12.964,47.5389 36.552,47.5389 23.59,0 36.55,-24.308 36.55,-47.5389 0,-23.2227 -12.96,-47.5273 -36.55,-47.5273"
         style="fill:#4fbe37;fill-opacity:1;fill-rule:nonzero;stroke:none"
         id="path64"
         inkscape:connector-curvature="0" /><path
         d="m 1095.47,147.637 c -2.7,0.91 -5.4,1.082 -6.3,1.082 -5.58,0 -9.54,-6.121 -9.54,-18.184 l 0,-7.019 14.76,0 0,-14.043 -14.76,0 0,-19.8167 c 0,-7.1954 0.18,-46.4415 1.08,-56.1719 l -22.33,0 c 0.9,11.3515 1.44,23.9453 1.44,34.7461 l 0,41.2425 -12.78,0 0,14.043 12.78,0 c 0,20.886 7.2,39.609 31.15,39.609 1.26,0 2.88,-0.176 4.5,-0.723 l 0,-14.765"
         style="fill:#4fbe37;fill-opacity:1;fill-rule:nonzero;stroke:none"
         id="path66"
         inkscape:connector-curvature="0" /><path
         d="m 1195.1,80.6641 c -4.51,16.9257 -9.73,34.2069 -12.97,43.5629 l -0.36,0 c -3.96,-11.7 -12.06,-40.145 -13.15,-43.5629 6.49,-0.1875 9.91,-0.3633 13.51,-0.3633 3.42,0 6.83,0.1758 12.97,0.3633 z m -2.35,81.3789 40.34,-128.5586 -25.03,0 c -0.91,3.9648 -6.3,23.7734 -8.65,30.2539 -7.38,0.1797 -12.96,0.3555 -18.18,0.3555 -5.41,0 -10.45,-0.1758 -17.47,-0.3555 -3.06,-10.086 -4.85,-18.3672 -7.02,-30.2539 l -21.6,0 c 12.24,38.8867 24.84,75.2656 36.91,117.0316 l -3.79,11.527 24.49,0"
         style="fill:#4fbe37;fill-opacity:1;fill-rule:nonzero;stroke:none"
         id="path68"
         inkscape:connector-curvature="0" /><path
         d="m 1257.75,123.516 1.98,-9.192 c 5.22,7.031 13.14,11.711 21.07,11.711 16.2,0 23.4,-11.887 23.4,-32.2264 0,-12.7852 0,-51.6797 1.44,-60.3242 l -21.78,0 c 0.36,2.8828 0.9,23.9453 0.9,27.3633 0,3.9648 -0.37,21.25 -0.37,27.0117 0,14.4066 -2.88,19.8086 -10.62,19.8086 -6.3,0 -9.9,-4.68 -12.77,-8.8203 l 0,-30.9649 c 0,-11.5273 0.17,-23.0469 1.07,-34.3984 l -21.43,0 c 0.18,9.0039 0.54,28.9844 0.54,43.3906 0,16.2109 -1.08,41.238 -2.33,46.641 l 18.9,0"
         style="fill:#4fbe37;fill-opacity:1;fill-rule:nonzero;stroke:none"
         id="path70"
         inkscape:connector-curvature="0" /><path
         d="m 1364.32,95.2422 c 0,9.5428 0,12.4258 -0.18,14.2308 -1.27,1.433 -3.43,2.16 -6.13,2.16 -14.4,0 -22.5,-18.9103 -22.5,-36.9142 0,-13.3243 4.69,-26.4649 16.21,-26.4649 4.68,0 9.18,2.5156 12.6,6.4805 l 0,40.5078 z m 20.52,66.8008 c -0.54,-6.301 -0.36,-15.664 -0.36,-24.672 l 0,-77.4218 c 0,-9.1797 -0.18,-18.3554 2.52,-26.4648 l -20.34,0 -1.45,7.207 c -6.66,-5.5859 -12.59,-9.7226 -21.25,-9.7226 -17.09,0 -28.98,16.5585 -28.98,39.9687 0,23.0469 13.15,55.0975 41.23,55.0975 2.34,0 5.76,-0.539 8.11,-1.445 l 0,15.488 c 0,4.68 -0.55,13.867 -1.26,21.965 l 21.78,0"
         style="fill:#4fbe37;fill-opacity:1;fill-rule:nonzero;stroke:none"
         id="path72"
         inkscape:connector-curvature="0" /><path
         d="m 1431.09,87.6836 c 8.11,2.5195 10.63,4.6797 10.63,9.7187 0,8.4647 -5.41,15.3007 -11.35,15.3007 -6.48,0 -14.59,-5.937 -14.94,-30.0663 l 15.66,5.0469 z M 1417.4,66.9727 c 0.73,-5.2149 5.05,-19.8047 19.46,-19.8047 7.2,0 13.86,4.3242 18.18,8.1054 l 7.56,-8.4687 c -3.06,-3.5899 -12.78,-15.8359 -30.61,-15.8359 -20.35,0 -37.45,18.1796 -37.45,45.371 0,24.8402 14.77,49.6952 36.01,49.6952 24.49,0 30.25,-24.133 30.97,-43.9373 l -44.12,-15.125"
         style="fill:#4fbe37;fill-opacity:1;fill-rule:nonzero;stroke:none"
         id="path74"
         inkscape:connector-curvature="0" /><path
         d="m 1489.4,123.516 c 1.63,-3.782 1.99,-10.813 2.16,-12.786 10.63,12.239 16.94,16.028 23.6,16.028 1.44,0 3.78,-0.363 5.04,-0.723 l 0,-18.183 c -2.16,0.363 -4.51,0.535 -6.66,0.535 -15.49,0 -20.89,-12.9651 -20.89,-40.6917 0,-19.6289 0.72,-26.1015 1.08,-34.2109 l -22.15,0 c 0.18,7.207 1.26,12.4219 1.26,43.75 0,15.3164 0.19,31.5156 -4.5,46.2816 l 21.06,0"
         style="fill:#4fbe37;fill-opacity:1;fill-rule:nonzero;stroke:none"
         id="path76"
         inkscape:connector-curvature="0" /><path
         d="m 1522.7,61.0352 c 4.86,-5.0391 16.21,-15.6641 27.91,-15.6641 7.74,0 12.24,4.5 12.24,10.625 0,15.8398 -38.89,14.2187 -38.89,39.6094 0,14.7655 13.5,30.4295 40.87,30.4295 1.99,0 7.03,-0.187 8.82,-0.722 l 1.27,-19.083 c -6.84,3.243 -13.33,4.317 -19.99,4.317 -7.92,0 -11.88,-4.68 -11.88,-8.82 0,-12.9692 38.88,-11.8832 38.88,-39.9692 0,-15.8515 -14.04,-30.789 -35.82,-30.789 -9,0 -16.03,2.8789 -23.41,5.5742 l 0,24.4922"
         style="fill:#4fbe37;fill-opacity:1;fill-rule:nonzero;stroke:none"
         id="path78"
         inkscape:connector-curvature="0" /><path
         d="m 1621.17,111.633 c -9.55,0 -14.95,-15.4924 -14.95,-33.1369 0,-17.6484 5.4,-33.125 14.95,-33.125 9.54,0 14.94,15.4766 14.94,33.125 0,17.6445 -5.4,33.1369 -14.94,33.1369 z m 0,-80.6642 c -23.59,0 -36.55,24.3046 -36.55,47.5273 0,23.2309 12.96,47.5389 36.55,47.5389 23.59,0 36.54,-24.308 36.54,-47.5389 0,-23.2227 -12.95,-47.5273 -36.54,-47.5273"
         style="fill:#4fbe37;fill-opacity:1;fill-rule:nonzero;stroke:none"
         id="path80"
         inkscape:connector-curvature="0" /><path
         d="m 1686.14,123.516 1.99,-9.192 c 5.21,7.031 13.14,11.711 21.06,11.711 16.2,0 23.41,-11.887 23.41,-32.2264 0,-12.7852 0,-51.6797 1.44,-60.3242 l -21.79,0 c 0.37,2.8828 0.89,23.9453 0.89,27.3633 0,3.9648 -0.35,21.25 -0.35,27.0117 0,14.4066 -2.88,19.8086 -10.62,19.8086 -6.31,0 -9.9,-4.68 -12.79,-8.8203 l 0,-30.9649 c 0,-11.5273 0.19,-23.0469 1.09,-34.3984 l -21.43,0 c 0.18,9.0039 0.54,28.9844 0.54,43.3906 0,16.2109 -1.08,41.238 -2.34,46.641 l 18.9,0"
         style="fill:#4fbe37;fill-opacity:1;fill-rule:nonzero;stroke:none"
         id="path82"
         inkscape:connector-curvature="0" /><path
         d="m 1870.21,135.398 c -5.59,5.579 -14.41,12.239 -24.67,12.239 -23.59,0 -31.33,-28.262 -31.33,-50.7737 0,-31.5117 14.04,-48.6094 32.23,-48.6094 9.71,0 17.82,6.1211 21.61,10.2617 l 8.09,-8.1054 c -4.14,-5.7618 -17.82,-19.4414 -35.28,-19.4414 -24.49,0 -51.14,21.25 -51.14,60.1328 0,34.3944 21.25,72.3824 60.32,72.3824 9,0 15.84,-1.441 20.17,-3.418 l 0,-24.668"
         style="fill:#4fbe37;fill-opacity:1;fill-rule:nonzero;stroke:none"
         id="path84"
         inkscape:connector-curvature="0" /><path
         d="m 1912.71,111.633 c -9.55,0 -14.95,-15.4924 -14.95,-33.1369 0,-17.6484 5.4,-33.125 14.95,-33.125 9.54,0 14.95,15.4766 14.95,33.125 0,17.6445 -5.41,33.1369 -14.95,33.1369 z m 0,-80.6642 c -23.59,0 -36.56,24.3046 -36.56,47.5273 0,23.2309 12.97,47.5389 36.56,47.5389 23.58,0 36.55,-24.308 36.55,-47.5389 0,-23.2227 -12.97,-47.5273 -36.55,-47.5273"
         style="fill:#4fbe37;fill-opacity:1;fill-rule:nonzero;stroke:none"
         id="path86"
         inkscape:connector-curvature="0" /><path
         d="m 2007.75,33.4844 -1.98,9.1836 c -5.22,-7.0235 -13.14,-11.6992 -21.06,-11.6992 -16.21,0 -23.41,11.8828 -23.41,32.2226 0,12.7852 0,51.6796 -1.44,60.3246 l 21.78,0 c -0.35,-2.883 -0.9,-23.9457 -0.9,-27.3754 0,-3.9531 0.36,-21.2383 0.36,-27 0,-14.4062 2.88,-19.8164 10.63,-19.8164 6.3,0 9.9,4.6875 12.78,8.8281 l 0,30.9688 c 0,11.5239 -0.17,23.0469 -1.08,34.3949 l 21.43,0 c -0.18,-9.004 -0.54,-28.9965 -0.54,-43.3988 0,-16.1992 1.07,-41.2305 2.34,-46.6328 l -18.91,0"
         style="fill:#4fbe37;fill-opacity:1;fill-rule:nonzero;stroke:none"
         id="path88"
         inkscape:connector-curvature="0" /><path
         d="m 2057.96,123.516 1.98,-9.192 c 5.22,7.031 13.15,11.711 21.07,11.711 16.2,0 23.4,-11.887 23.4,-32.2264 0,-12.7852 0,-51.6797 1.45,-60.3242 l -21.8,0 c 0.37,2.8828 0.9,23.9453 0.9,27.3633 0,3.9648 -0.35,21.25 -0.35,27.0117 0,14.4066 -2.88,19.8086 -10.63,19.8086 -6.3,0 -9.9,-4.68 -12.78,-8.8203 l 0,-30.9649 c 0,-11.5273 0.19,-23.0469 1.09,-34.3984 l -21.43,0 c 0.18,9.0039 0.54,28.9844 0.54,43.3906 0,16.2109 -1.09,41.238 -2.35,46.641 l 18.91,0"
         style="fill:#4fbe37;fill-opacity:1;fill-rule:nonzero;stroke:none"
         id="path90"
         inkscape:connector-curvature="0" /><path
         d="m 2161.29,109.473 -15.13,0 c -0.18,-3.606 -0.53,-10.4496 -0.53,-22.8714 l 0,-25.2071 c 0,-10.9843 3.24,-14.9414 8.81,-14.9414 1.26,0 5.4,0.3516 7.21,0.7149 l 0,-12.4219 c -5.95,-2.8828 -11.16,-3.7773 -14.4,-3.7773 -14.23,0 -21.08,9.7226 -21.08,22.5078 0,8.8203 -0.17,48.2504 -0.71,55.9964 l -11.35,0 0,14.043 11.71,0 c 0,2.332 0.54,16.386 -0.36,27.91 l 20.7,0 c -0.18,-3.965 -0.53,-7.383 -0.53,-18.008 0,-1.984 0.72,-6.301 0.35,-9.902 l 15.31,0 0,-14.043"
         style="fill:#4fbe37;fill-opacity:1;fill-rule:nonzero;stroke:none"
         id="path92"
         inkscape:connector-curvature="0" /><path
         d="m 2183.7,123.516 c 2.34,-12.969 11.52,-46.0941 17.11,-60.1371 5.58,14.043 11.52,43.7501 13.32,60.1371 l 18.73,0 C 2226.02,91.4648 2217.01,59.9492 2204.23,29.8828 2194.5,7.01953 2183.53,0 2169.3,0 c -1.8,0 -4.68,0.359375 -7.75,1.25781 l 0,17.82419 c 3.61,-2.1562 7.21,-2.8828 10.27,-2.8828 9,0 12.07,5.586 19.45,19.8086 C 2180.82,65 2168.04,93.2617 2161.2,123.516 l 22.5,0"
         style="fill:#4fbe37;fill-opacity:1;fill-rule:nonzero;stroke:none"
         id="path94"
         inkscape:connector-curvature="0" /><path
         d="m 2240.94,11.8828 c 3.06,2.336 14.04,11.7031 13.68,20.8789 -6.66,1.4492 -10.8,6.4844 -10.8,12.2461 0,6.4844 5.04,11.5235 12.07,11.5235 7.92,0 13.14,-7.0196 13.14,-15.3008 0,-10.8008 -6.48,-24.1328 -22.87,-35.46878 l -5.22,6.12108"
         style="fill:#4fbe37;fill-opacity:1;fill-rule:nonzero;stroke:none"
         id="path96"
         inkscape:connector-curvature="0" /><path
         d="m 2409.62,143.32 c -8.11,1.438 -20.53,1.981 -29.72,2.52 0,-21.426 -0.36,-42.676 -0.36,-64.1017 0,-15.1289 0.36,-32.2266 1.09,-48.2539 l -24.85,0 c 0.71,28.0859 1.44,43.2148 1.44,68.7816 0,14.589 0.36,28.992 -0.18,43.574 -14.04,-0.363 -17.83,-0.723 -29.89,-2.52 l 0,18.723 82.47,0 0,-18.723"
         style="fill:#4fbe37;fill-opacity:1;fill-rule:nonzero;stroke:none"
         id="path98"
         inkscape:connector-curvature="0" /><path
         d="m 2445.24,162.043 c 11.53,-20.531 19.26,-40.332 28.99,-60.5 5.94,-12.4219 7.02,-15.4805 8.47,-20.5196 l 0.36,0.3555 c -1.27,26.6481 -1.62,53.6601 -2.53,80.6641 l 20.71,0 c -0.36,-11.875 -0.9,-45.734 -0.9,-76.6992 0,-21.4258 0.35,-41.418 0.71,-51.8594 l -16.2,0 c -2.15,5.2265 -3.24,7.3828 -9.18,19.6289 l -29.53,61.3987 c -3.24,6.843 -4.14,10.261 -4.86,14.043 l -0.36,0 c 0,-31.6917 0.18,-63.3792 1.44,-95.0706 l -21.07,0 c 0.55,19.8086 0.55,45.3711 0.55,68.0586 0,16.211 -0.19,44.656 -1.09,60.5 l 24.49,0"
         style="fill:#4fbe37;fill-opacity:1;fill-rule:nonzero;stroke:none"
         id="path100"
         inkscape:connector-curvature="0" /></g></g></svg>