<?xml version="1.0" encoding="UTF-8" standalone="no"?>
<!-- Created with Inkscape (http://www.inkscape.org/) -->

<svg
   xmlns:dc="http://purl.org/dc/elements/1.1/"
   xmlns:cc="http://creativecommons.org/ns#"
   xmlns:rdf="http://www.w3.org/1999/02/22-rdf-syntax-ns#"
   xmlns:svg="http://www.w3.org/2000/svg"
   xmlns="http://www.w3.org/2000/svg"
   xmlns:sodipodi="http://sodipodi.sourceforge.net/DTD/sodipodi-0.dtd"
   xmlns:inkscape="http://www.inkscape.org/namespaces/inkscape"
   id="svg2"
   version="1.1"
   inkscape:version="0.91 r13725"
   xml:space="preserve"
   width="480.35001"
   height="81.425003"
   viewBox="0 0 480.35001 81.425003"
   sodipodi:docname="AndersonCO_sgl_2clr.svg"><metadata
     id="metadata8"><rdf:RDF><cc:Work
         rdf:about=""><dc:format>image/svg+xml</dc:format><dc:type
           rdf:resource="http://purl.org/dc/dcmitype/StillImage" /><dc:title></dc:title></cc:Work></rdf:RDF></metadata><defs
     id="defs6" /><sodipodi:namedview
     pagecolor="#ffffff"
     bordercolor="#666666"
     borderopacity="1"
     objecttolerance="10"
     gridtolerance="10"
     guidetolerance="10"
     inkscape:pageopacity="0"
     inkscape:pageshadow="2"
     inkscape:window-width="1920"
     inkscape:window-height="1051"
     id="namedview4"
     showgrid="false"
     inkscape:zoom="0.79317164"
     inkscape:cx="240.175"
     inkscape:cy="40.712502"
     inkscape:window-x="0"
     inkscape:window-y="0"
     inkscape:window-maximized="1"
     inkscape:current-layer="g10" /><g
     id="g10"
     inkscape:groupmode="layer"
     inkscape:label="ink_ext_XXXXXX"
     transform="matrix(1.25,0,0,-1.25,0,81.425)"><g
       id="g12"
       transform="scale(0.1,0.1)"><path
         d="m 286.84,498.285 c 12.351,0 22.359,10.02 22.359,22.352 0,12.359 -10.008,22.367 -22.359,22.367 -12.352,0 -22.36,-10.008 -22.36,-22.367 0,-12.332 10.008,-22.352 22.36,-22.352 m 107.301,-45.781 c 12.3,-0.899 23.019,8.359 23.91,20.691 0.898,12.309 -8.371,23.008 -20.68,23.918 -12.32,0.891 -23.031,-8.386 -23.922,-20.699 -0.89,-12.309 8.371,-23.008 20.692,-23.91 m 97.57,-14.359 c -2.633,9.679 -16.012,11.16 -27.82,8.089 -9.301,-2.429 -41.731,-11.437 -70.5,-9.347 -20.68,1.5 -40.891,18.707 -53.481,30.488 12.5,14.391 28.61,29.859 32.309,34.18 5.351,6.242 6.242,16.031 1.801,20.468 -4.461,4.442 -12.461,1.75 -20.469,-3.578 -8,-5.32 -38.242,-35.789 -67.102,-35.789 -28.847,0 -60.078,30.469 -68.097,35.789 -7.993,5.328 -19.571,4.442 -24.024,0 -4.449,-4.441 0.012,-10.648 5.352,-16.89 3.781,-4.418 20.5,-20.45 33.101,-35.121 -12.64,-11.731 -32.34,-28.09 -52.492,-29.547 -28.769,-2.09 -61.199,6.918 -70.5,9.347 -11.8085,3.071 -25.1874,1.59 -27.8202,-8.089 -1.6485,-6.071 3.4921,-12.739 10.4101,-17.27 6.8711,-4.48 42.5191,-11.398 52.5621,-26.719 10.02,-15.359 11.547,-133.929 20.868,-137.922 6.82,-2.898 18.703,-2.898 25.16,0.391 9.043,4.602 24.293,133.98 32.011,150.57 4.25,9.2 14.989,22.91 24.559,34.481 8.242,-38.672 17.262,-182.602 25.961,-185.621 6.57,-2.25 19.648,-2.25 24.91,0 8.57,3.718 17.949,151.461 26.32,187.308 9.918,-11.886 21.52,-26.508 25.989,-36.168 7.703,-16.59 22.953,-145.968 32.011,-150.57 6.45,-3.289 18.321,-3.289 25.141,-0.391 9.32,3.993 10.848,122.563 20.879,137.922 10.031,15.321 45.691,22.239 52.559,26.719 6.91,4.531 12.05,11.199 10.402,17.27 m -312.16,14.359 c 12.32,0.902 21.59,11.601 20.679,23.91 -0.89,12.313 -11.589,21.59 -23.921,20.699 -12.309,-0.91 -21.571,-11.609 -20.68,-23.918 0.902,-12.332 11.609,-21.59 23.922,-20.691"
         style="fill:#155195;fill-opacity:1;fill-rule:nonzero;stroke:none"
         id="path14"
         inkscape:connector-curvature="0" /><path
         d="m 496.18,519.074 c 10.859,-17.25 -11.891,-23.711 -29.282,-19.75 -14.546,3.332 -157.308,79.641 -178.718,81.602 -21.328,1.961 -149.739,-77 -163.899,-84.582 -20.793,-11.11 -39.1521,-10.039 -58.3591,-0.078 -6.3438,3.308 -55.25,29.121 -65.9219,36.339 10.6719,9.95 159.148,99.09 176.422,107.75 19.898,9.981 31.738,15.219 53.59,7.04 15.16,-5.661 261.668,-121.2 266.168,-128.321"
         style="fill:#4fbe37;fill-opacity:1;fill-rule:nonzero;stroke:none"
         id="path16"
         inkscape:connector-curvature="0" /><path
         d="m 56.3203,408.336 c 5.5586,-0.82 31.8008,-12.141 42.1992,-17.473 25.0005,-12.886 26.2895,-25.668 29.1525,-46.488 3.039,-22.199 5.648,-63.551 6.09,-79.211 -10.453,4.492 -51.4104,38.75 -61.1839,47.191 -7.5664,6.571 -16.039,11.239 -16.0273,21.418 0.0273,3.883 -1.7617,65.024 -0.2305,74.563"
         style="fill:#4fbe37;fill-opacity:1;fill-rule:nonzero;stroke:none"
         id="path18"
         inkscape:connector-curvature="0" /><path
         d="m 647.281,528.656 c -1.519,-18.551 -1.902,-40.16 -1.902,-63.242 l 0,-43.551 c 8.332,-0.367 16.672,-0.738 28.781,-0.738 12.129,0 20.442,0.371 28.77,0.738 l 0,43.551 c 0,23.082 -0.379,44.691 -1.891,63.242 l 71.563,0 c -3.793,-39 -3.793,-70.812 -3.793,-135.191 0,-64.352 0,-96.16 3.793,-135.16 l -71.563,0 c 1.512,18.539 1.891,40.14 1.891,63.23 l 0,55.289 c -8.328,0.371 -16.641,0.742 -28.77,0.742 -12.109,0 -20.449,-0.371 -28.781,-0.742 l 0,-55.289 c 0,-23.09 0.383,-44.691 1.902,-63.23 l -71.57,0 c 3.789,39 3.789,70.808 3.789,135.16 0,64.379 0,96.191 -3.789,135.191 l 71.57,0"
         style="fill:#155195;fill-opacity:1;fill-rule:nonzero;stroke:none"
         id="path20"
         inkscape:connector-curvature="0" /><path
         d="m 887.699,356.746 c -23.84,-6.051 -38.609,-20.82 -38.609,-39.762 0,-13.257 8.332,-23.468 20.441,-23.468 7.957,0 15.918,4.929 18.168,8.339 l 0,54.891 z m -82.148,93.899 c 5.289,0.761 25.75,3.031 39.75,3.031 78.379,0 102.23,-30.672 102.23,-81.403 l 0,-47.339 c 0,-18.168 0,-38.629 9.86,-66.629 l -60.211,0 c -4.551,6.05 -6.059,10.218 -6.45,11.73 -10.21,-7.582 -24.23,-14.762 -42.39,-14.762 -36.738,0 -60.578,25.364 -60.578,57.172 0,34.84 27.629,58.321 63.609,70.051 l 31.41,10.231 c -0.371,13.238 -9.082,24.597 -26.871,24.597 -12.121,0 -31.058,-5.679 -50.359,-19.679 l 0,53"
         style="fill:#155195;fill-opacity:1;fill-rule:nonzero;stroke:none"
         id="path22"
         inkscape:connector-curvature="0" /><path
         d="m 1036.14,311.305 c 0,-10.961 4.15,-19.692 16.28,-19.692 15.53,0 26.51,15.91 26.51,60.981 0,32.16 -8.34,59.82 -27.27,59.82 -10.22,0 -15.52,-6.449 -15.52,-15.539 l 0,-85.57 z m 0,217.351 0,-85.582 c 9.46,5.692 23.1,10.602 36.73,10.602 35.97,0 69.67,-26.5 69.67,-95.403 0,-53.398 -29.16,-104.519 -82.92,-104.519 -14.39,0 -31.06,4.93 -48.84,18.922 l -21.21,-18.153 -18.179,10.973 c 3.41,24.219 3.41,49.981 3.41,77.25 l 0,108.66 c 0,14.008 0,29.539 -3.801,77.25 l 65.14,0"
         style="fill:#155195;fill-opacity:1;fill-rule:nonzero;stroke:none"
         id="path24"
         inkscape:connector-curvature="0" /><path
         d="m 1230.16,449.125 c -0.75,-19.68 -0.75,-48.449 -0.75,-89.352 0,-51.488 0,-77.238 3.4,-101.468 l -68.15,0 c 3.4,24.23 3.4,49.98 3.4,77.25 l 0,36.332 c 0,27.277 0,53.019 -3.4,77.238 l 65.5,0 z m -31.42,82.191 c 18.92,0 34.07,-15.16 34.07,-34.082 0,-18.937 -15.15,-34.097 -34.07,-34.097 -18.93,0 -34.08,15.16 -34.08,34.097 0,18.922 15.15,34.082 34.08,34.082"
         style="fill:#155195;fill-opacity:1;fill-rule:nonzero;stroke:none"
         id="path26"
         inkscape:connector-curvature="0" /><path
         d="m 1337.91,507.066 c -0.76,-11.73 -1.14,-34.082 -1.14,-57.941 l 28.4,0 0,-36.352 -28.4,0 0,-95.386 c 0,-15.532 5.68,-24.262 20.82,-24.262 2.29,0 4.54,0 7.96,0.391 l 0,-34.071 c -12.51,-4.172 -25.36,-5.691 -38.24,-5.691 -17.04,0 -30.67,6.051 -40.9,18.191 -7.95,9.45 -10.99,25.36 -10.99,44.66 l 0,96.168 -21.95,0 0,36.352 21.95,0 c 0,23.859 -0.36,46.211 -1.13,57.941 l 63.62,0"
         style="fill:#155195;fill-opacity:1;fill-rule:nonzero;stroke:none"
         id="path28"
         inkscape:connector-curvature="0" /><path
         d="m 1483.31,356.746 c -23.86,-6.051 -38.63,-20.82 -38.63,-39.762 0,-13.257 8.33,-23.468 20.45,-23.468 7.94,0 15.9,4.929 18.18,8.339 l 0,54.891 z m -82.18,93.899 c 5.31,0.761 25.76,3.031 39.77,3.031 78.38,0 102.23,-30.672 102.23,-81.403 l 0,-47.339 c 0,-18.168 0,-38.629 9.84,-66.629 l -60.19,0 c -4.55,6.05 -6.07,10.218 -6.45,11.73 -10.22,-7.582 -24.23,-14.762 -42.41,-14.762 -36.72,0 -60.58,25.364 -60.58,57.172 0,34.84 27.64,58.321 63.61,70.051 l 31.42,10.231 c -0.38,13.238 -9.08,24.597 -26.88,24.597 -12.11,0 -31.04,-5.679 -50.36,-19.679 l 0,53"
         style="fill:#155195;fill-opacity:1;fill-rule:nonzero;stroke:none"
         id="path30"
         inkscape:connector-curvature="0" /><path
         d="m 1646.88,507.066 c -0.77,-11.73 -1.13,-34.082 -1.13,-57.941 l 28.4,0 0,-36.352 -28.4,0 0,-95.386 c 0,-15.532 5.67,-24.262 20.81,-24.262 2.27,0 4.55,0 7.95,0.391 l 0,-34.071 c -12.49,-4.172 -25.36,-5.691 -38.24,-5.691 -17.04,0 -30.67,6.051 -40.89,18.191 -7.95,9.45 -10.98,25.36 -10.98,44.66 l 0,96.168 -21.97,0 0,36.352 21.97,0 c 0,23.859 -0.38,46.211 -1.14,57.941 l 63.62,0"
         style="fill:#155195;fill-opacity:1;fill-rule:nonzero;stroke:none"
         id="path32"
         inkscape:connector-curvature="0" /><path
         d="m 3799.56,456.605 9.72,0 c 6.47,0 8.57,2.301 8.57,6.969 0,4.09 -3.05,6.379 -7.24,6.379 l -11.05,0 0,-13.348 z m 0,-22.941 -5.9,0 0,41.25 15.7,0 c 9.63,0 14.39,-3.91 14.39,-11.738 0,-7.422 -4.86,-10.563 -10.76,-11.321 l 11.9,-18.191 -6.57,0 -11.14,17.992 -7.62,0 0,-17.992 z m 7.71,-9.609 c 16.37,0 29.04,12.949 29.04,30.101 0,16.848 -12.67,29.891 -29.04,29.891 -16.65,0 -29.22,-13.043 -29.22,-29.891 0,-17.152 12.57,-30.101 29.22,-30.101 m 0,65.32 c 19.33,0 35.52,-15.23 35.52,-35.219 0,-20.211 -16.19,-35.453 -35.52,-35.453 -19.41,0 -35.71,15.242 -35.71,35.453 0,19.989 16.3,35.219 35.71,35.219"
         style="fill:#155195;fill-opacity:1;fill-rule:nonzero;stroke:none"
         id="path34"
         inkscape:connector-curvature="0" /><path
         d="m 1885.33,487.465 c -1.48,1.121 -6.38,3.762 -14.64,3.762 -15.8,0 -23.32,-12.024 -23.32,-24.832 0,-7.508 2.26,-15.008 3.76,-18.79 l 28.2,0 0,-36.082 -28.57,0 0,-76.707 c 0,-27.062 0,-52.64 3.39,-76.691 l -67.69,0 c 3.38,24.051 3.38,49.629 3.38,76.691 l 0,76.707 -20.66,0 0,36.082 20.66,0 0,14.668 c 0,22.18 3.77,37.211 21.44,51.883 15.03,12.039 33.83,16.168 50.37,16.168 9.04,0 18.8,-1.508 23.68,-3.39 l 0,-39.469"
         style="fill:#155195;fill-opacity:1;fill-rule:nonzero;stroke:none"
         id="path36"
         inkscape:connector-curvature="0" /><path
         d="m 1949.79,352.887 c 0,-45.532 9.76,-61.672 21.04,-61.672 11.29,0 21.06,16.14 21.06,61.672 0,45.476 -9.77,61.648 -21.06,61.648 -11.28,0 -21.04,-16.172 -21.04,-61.648 m 109.02,0 c 0,-63.934 -42.11,-99.274 -87.98,-99.274 -45.86,0 -87.98,35.34 -87.98,99.274 0,63.898 42.12,99.238 87.98,99.238 45.87,0 87.98,-35.34 87.98,-99.238"
         style="fill:#155195;fill-opacity:1;fill-rule:nonzero;stroke:none"
         id="path38"
         inkscape:connector-curvature="0" /><path
         d="m 2138.14,447.605 c 2.28,-6.75 4.91,-19.171 5.28,-25.179 13.15,17.679 28.95,29.699 47.74,29.699 4.14,0 6.4,-0.371 8.28,-1.129 l 0,-50.012 c -4.14,1.141 -9.41,1.512 -11.27,1.512 -28.59,0 -40.98,-26.312 -40.98,-67.68 0,-27.062 0,-52.64 3.37,-76.691 l -69.94,0 c 3.39,24.051 3.39,49.629 3.39,76.691 l 0,36.098 c 0,27.082 0,52.633 -6.39,76.691 l 60.52,0"
         style="fill:#155195;fill-opacity:1;fill-rule:nonzero;stroke:none"
         id="path40"
         inkscape:connector-curvature="0" /><path
         d="m 2367.35,526.566 c -1.51,-18.421 -1.88,-39.863 -1.88,-62.793 l 0,-43.226 c 8.27,-0.371 16.54,-0.742 28.58,-0.742 12.02,0 20.32,0.371 28.58,0.742 l 0,43.226 c 0,22.93 -0.39,44.372 -1.89,62.793 l 71.04,0 c -3.74,-38.73 -3.74,-70.281 -3.74,-134.211 0,-63.929 0,-95.5 3.74,-134.23 l -71.04,0 c 1.5,18.41 1.89,39.828 1.89,62.781 l 0,54.899 c -8.26,0.379 -16.56,0.742 -28.58,0.742 -12.04,0 -20.31,-0.363 -28.58,-0.742 l 0,-54.899 c 0,-22.953 0.37,-44.371 1.88,-62.781 l -71.05,0 c 3.77,38.73 3.77,70.301 3.77,134.23 0,63.93 0,95.481 -3.77,134.211 l 71.05,0"
         style="fill:#155195;fill-opacity:1;fill-rule:nonzero;stroke:none"
         id="path42"
         inkscape:connector-curvature="0" /><path
         d="m 2633.89,258.125 c -2.63,5.641 -4.52,12.012 -5.62,16.922 -13.93,-13.543 -28.22,-21.434 -47.77,-21.434 -31.97,0 -53,23.332 -53,59.403 l 0,57.898 c 0,27.082 0,52.633 -3.39,76.691 l 64.31,0 0,-125.929 c 0,-15.063 5.99,-23.723 16.92,-23.723 9.39,0 19.16,6.781 19.16,19.942 l 0,53.019 c 0,27.082 0,52.633 -3.38,76.691 l 67.65,0 c -3.36,-24.058 -3.36,-49.609 -3.36,-76.691 l 0,-36.098 c 0,-27.062 0,-52.64 3.36,-76.691 l -54.88,0"
         style="fill:#155195;fill-opacity:1;fill-rule:nonzero;stroke:none"
         id="path44"
         inkscape:connector-curvature="0" /><path
         d="m 2771.9,447.605 c 2.64,-5.621 4.49,-12.019 5.63,-16.902 13.91,12.774 30.83,21.422 49.63,21.422 20.3,0 33.09,-11.648 42.1,-24.059 13.53,12.039 28.58,24.059 53.03,24.059 36.84,0 50.74,-25.941 50.74,-63.16 l 0,-54.149 c 0,-27.062 0,-52.64 3.39,-76.691 l -67.67,0 c 3.38,24.051 3.38,49.629 3.38,76.691 l 0,52.27 c 0,13.16 -3.77,22.93 -15.41,22.93 -12.79,0 -19.94,-9.77 -19.94,-22.93 l 0,-52.27 c 0,-27.062 0,-52.64 3.4,-76.691 l -67.68,0 c 3.38,24.051 3.38,49.629 3.38,76.691 l 0,53.008 c 0,12.422 -3.77,22.192 -15.42,22.192 -10.52,0 -19.94,-8.661 -19.94,-19.911 l 0,-55.289 c 0,-27.062 0,-52.64 3.4,-76.691 l -67.68,0 c 3.38,24.051 3.38,49.629 3.38,76.691 l 0,36.098 c 0,27.082 0,52.633 -3.38,76.691 l 55.66,0"
         style="fill:#155195;fill-opacity:1;fill-rule:nonzero;stroke:none"
         id="path46"
         inkscape:connector-curvature="0" /><path
         d="m 3097.1,355.875 c -23.7,-6.012 -38.36,-20.699 -38.36,-39.469 0,-13.152 8.27,-23.293 20.32,-23.293 7.88,0 15.79,4.84 18.04,8.25 l 0,54.512 z m -81.59,93.25 c 5.25,0.73 25.56,3 39.48,3 77.83,0 101.51,-30.449 101.51,-80.84 l 0,-46.988 c 0,-18.051 0,-38.352 9.77,-66.172 l -59.78,0 c -4.5,6.012 -6.01,10.148 -6.39,11.672 -10.15,-7.551 -24.08,-14.703 -42.11,-14.703 -36.47,0 -60.15,25.23 -60.15,56.793 0,34.566 27.44,57.886 63.16,69.558 l 31.2,10.168 c -0.37,13.133 -9.03,24.41 -26.7,24.41 -12.02,0 -30.83,-5.636 -49.99,-19.539 l 0,52.641"
         style="fill:#155195;fill-opacity:1;fill-rule:nonzero;stroke:none"
         id="path48"
         inkscape:connector-curvature="0" /><path
         d="m 3235.82,447.605 c 2.64,-5.621 4.51,-12.019 5.64,-16.902 13.92,13.531 28.19,21.422 47.75,21.422 31.96,0 53.02,-23.289 53.02,-59.398 l 0,-57.911 c 0,-27.062 0,-52.64 3.38,-76.691 l -67.68,0 c 3.39,24.051 3.39,49.629 3.39,76.691 l 0,51.899 c 0,11.648 -4.9,21.051 -16.18,21.051 -9.39,0 -19.91,-6.782 -19.91,-18.051 l 0,-54.899 c 0,-27.062 0,-52.64 3.35,-76.691 l -67.65,0 c 3.39,24.051 3.39,49.629 3.39,76.691 l 0,36.098 c 0,27.082 0,52.633 -3.39,76.691 l 54.89,0"
         style="fill:#155195;fill-opacity:1;fill-rule:nonzero;stroke:none"
         id="path50"
         inkscape:connector-curvature="0" /><path
         d="m 3432.84,447.605 c -0.75,-19.539 -0.75,-48.121 -0.75,-88.718 0,-51.133 0,-76.711 3.39,-100.762 l -67.67,0 c 3.36,24.051 3.36,49.629 3.36,76.691 l 0,36.098 c 0,27.082 0,52.633 -3.36,76.691 l 65.03,0 z m -31.21,81.61 c 18.8,0 33.85,-15.059 33.85,-33.86 0,-18.789 -15.05,-33.832 -33.85,-33.832 -18.79,0 -33.82,15.043 -33.82,33.832 0,18.801 15.03,33.86 33.82,33.86"
         style="fill:#155195;fill-opacity:1;fill-rule:nonzero;stroke:none"
         id="path52"
         inkscape:connector-curvature="0" /><path
         d="m 3539.97,505.156 c -0.75,-11.66 -1.12,-33.859 -1.12,-57.551 l 28.2,0 0,-36.082 -28.2,0 0,-94.738 c 0,-15.422 5.64,-24.082 20.67,-24.082 2.26,0 4.52,0 7.9,0.41 l 0,-33.84 c -12.42,-4.179 -25.19,-5.66 -37.98,-5.66 -16.9,0 -30.46,6.024 -40.58,18.032 -7.92,9.421 -10.92,25.21 -10.92,44.39 l 0,95.488 -21.8,0 0,36.082 21.8,0 c 0,23.692 -0.39,45.891 -1.14,57.551 l 63.17,0"
         style="fill:#155195;fill-opacity:1;fill-rule:nonzero;stroke:none"
         id="path54"
         inkscape:connector-curvature="0" /><path
         d="m 3650.13,447.605 c 4.91,-29.332 19.19,-82.699 26.7,-107.14 l 0.78,0 c 10.5,38.359 18.41,81.59 21.78,107.14 l 53.76,0 c -12.4,-51.492 -40.6,-156 -64.67,-205.261 -12.41,-25.18 -31.2,-55.649 -82.69,-55.649 -5.26,0 -13.18,0.371 -18.07,1.879 l 0,48.11 c 3.4,-1.868 11.65,-5.618 21.06,-5.618 19.55,0 32.7,16.149 32.7,30.059 0,7.148 -1.49,11.66 -16.53,51.5 -20.31,53.422 -35.74,109.801 -39.85,134.98 l 65.03,0"
         style="fill:#155195;fill-opacity:1;fill-rule:nonzero;stroke:none"
         id="path56"
         inkscape:connector-curvature="0" /><path
         d="m 618.379,111.641 c -9.539,0 -14.941,-15.4887 -14.941,-33.1332 0,-17.6484 5.402,-33.1367 14.941,-33.1367 9.543,0 14.945,15.4883 14.945,33.1367 0,17.6445 -5.402,33.1332 -14.945,33.1332 z m 0,-80.6644 c -23.582,0 -36.555,24.2968 -36.555,47.5312 0,23.2302 12.973,47.5272 36.555,47.5272 23.59,0 36.555,-24.297 36.555,-47.5272 0,-23.2344 -12.965,-47.5312 -36.555,-47.5312"
         style="fill:#4fbe37;fill-opacity:1;fill-rule:nonzero;stroke:none"
         id="path58"
         inkscape:connector-curvature="0" /><path
         d="m 707.66,147.645 c -2.699,0.902 -5.402,1.085 -6.305,1.085 -5.578,0 -9.539,-6.132 -9.539,-18.183 l 0,-7.031 14.766,0 0,-14.043 -14.766,0 0,-19.805 c 0,-7.2071 0.18,-46.4532 1.079,-56.1719 l -22.329,0 c 0.903,11.3398 1.446,23.9453 1.446,34.7461 l 0,41.2308 -12.789,0 0,14.043 12.789,0 c 0,20.886 7.199,39.609 31.148,39.609 1.258,0 2.879,-0.176 4.5,-0.723 l 0,-14.757"
         style="fill:#4fbe37;fill-opacity:1;fill-rule:nonzero;stroke:none"
         id="path60"
         inkscape:connector-curvature="0" /><path
         d="m 809.184,80.6641 c -4.5,16.9336 -9.727,34.2189 -12.961,43.5739 l -0.364,0 c -3.961,-11.699 -12.066,-40.156 -13.144,-43.5739 6.484,-0.1758 9.902,-0.3516 13.508,-0.3516 3.418,0 6.84,0.1758 12.961,0.3516 z m -2.344,81.3869 40.332,-128.5549 -25.024,0 c -0.902,3.9531 -6.304,23.7695 -8.64,30.2422 -7.387,0.1875 -12.965,0.3633 -18.192,0.3633 -5.398,0 -10.445,-0.1758 -17.464,-0.3633 -3.055,-10.086 -4.86,-18.3672 -7.024,-30.2422 l -21.605,0 c 12.246,38.8867 24.847,75.2539 36.914,117.0309 l -3.782,11.524 24.485,0"
         style="fill:#4fbe37;fill-opacity:1;fill-rule:nonzero;stroke:none"
         id="path62"
         inkscape:connector-curvature="0" /><path
         d="m 873.07,123.516 1.985,-9.18 c 5.218,7.019 13.136,11.699 21.062,11.699 16.207,0 23.41,-11.875 23.41,-32.2264 0,-12.7852 0,-51.6797 1.442,-60.3125 l -21.789,0 c 0.363,2.8711 0.898,23.9453 0.898,27.3633 0,3.9648 -0.359,21.25 -0.359,27.0117 0,14.3949 -2.883,19.8049 -10.621,19.8049 -6.305,0 -9.903,-4.688 -12.785,-8.8283 l 0,-30.9649 c 0,-11.5273 0.179,-23.0469 1.082,-34.3867 l -21.426,0 c 0.179,9.0039 0.535,28.9844 0.535,43.3906 0,16.1992 -1.078,41.2263 -2.34,46.6293 l 18.906,0"
         style="fill:#4fbe37;fill-opacity:1;fill-rule:nonzero;stroke:none"
         id="path64"
         inkscape:connector-curvature="0" /><path
         d="m 981.441,95.2539 c 0,9.5311 0,12.4221 -0.179,14.2191 -1.262,1.445 -3.418,2.168 -6.125,2.168 -14.407,0 -22.504,-18.9066 -22.504,-36.9144 0,-13.3203 4.68,-26.4649 16.207,-26.4649 4.676,0 9.18,2.5196 12.601,6.4727 l 0,40.5195 z m 20.529,66.7971 c -0.54,-6.309 -0.36,-15.664 -0.36,-24.668 l 0,-77.4221 c 0,-9.1796 -0.18,-18.3671 2.52,-26.4648 l -20.353,0 -1.437,7.1953 c -6.66,-5.5742 -12.606,-9.7148 -21.246,-9.7148 -17.106,0 -28.989,16.5625 -28.989,39.9609 0,23.0469 13.145,55.0975 41.235,55.0975 2.34,0 5.762,-0.535 8.101,-1.437 l 0,15.48 c 0,4.688 -0.543,13.867 -1.261,21.973 l 21.79,0"
         style="fill:#4fbe37;fill-opacity:1;fill-rule:nonzero;stroke:none"
         id="path66"
         inkscape:connector-curvature="0" /><path
         d="m 1050.01,87.6836 c 8.11,2.5312 10.62,4.6797 10.62,9.7266 0,8.4688 -5.4,15.3048 -11.34,15.3048 -6.48,0 -14.58,-5.938 -14.94,-30.0705 l 15.66,5.0391 z m -13.68,-20.7031 c 0.72,-5.2227 5.04,-19.8125 19.45,-19.8125 7.2,0 13.86,4.3359 18.18,8.1054 l 7.56,-8.457 c -3.06,-3.6016 -12.78,-15.8398 -30.61,-15.8398 -20.34,0 -37.45,18.1836 -37.45,45.3711 0,24.8433 14.77,49.6873 36.01,49.6873 24.49,0 30.25,-24.121 30.97,-43.9256 l -44.11,-15.1289"
         style="fill:#4fbe37;fill-opacity:1;fill-rule:nonzero;stroke:none"
         id="path68"
         inkscape:connector-curvature="0" /><path
         d="m 1110.13,123.516 c 1.62,-3.782 1.98,-10.801 2.16,-12.786 10.63,12.247 16.92,16.028 23.59,16.028 1.44,0 3.78,-0.352 5.04,-0.723 l 0,-18.183 c -2.16,0.363 -4.5,0.546 -6.66,0.546 -15.49,0 -20.89,-12.9683 -20.89,-40.7027 0,-19.6211 0.72,-26.1015 1.08,-34.1992 l -22.15,0 c 0.19,7.1953 1.26,12.4219 1.26,43.75 0,15.3047 0.19,31.5039 -4.5,46.2699 l 21.07,0"
         style="fill:#4fbe37;fill-opacity:1;fill-rule:nonzero;stroke:none"
         id="path70"
         inkscape:connector-curvature="0" /><path
         d="m 1145.22,61.0352 c 4.86,-5.0391 16.21,-15.6641 27.91,-15.6641 7.74,0 12.24,4.5117 12.24,10.625 0,15.8398 -38.89,14.2187 -38.89,39.6094 0,14.7655 13.51,30.4295 40.87,30.4295 1.99,0 7.03,-0.176 8.83,-0.722 l 1.26,-19.083 c -6.84,3.243 -13.33,4.317 -19.99,4.317 -7.92,0 -11.88,-4.668 -11.88,-8.809 0,-12.9685 38.89,-11.8942 38.89,-39.9802 0,-15.8398 -14.04,-30.7812 -35.83,-30.7812 -9.01,0 -16.03,2.8711 -23.41,5.5742 l 0,24.4844"
         style="fill:#4fbe37;fill-opacity:1;fill-rule:nonzero;stroke:none"
         id="path72"
         inkscape:connector-curvature="0" /><path
         d="m 1245.49,111.641 c -9.54,0 -14.94,-15.4887 -14.94,-33.1332 0,-17.6484 5.4,-33.1367 14.94,-33.1367 9.55,0 14.95,15.4883 14.95,33.1367 0,17.6445 -5.4,33.1332 -14.95,33.1332 z m 0,-80.6644 c -23.59,0 -36.54,24.2968 -36.54,47.5312 0,23.2302 12.95,47.5272 36.54,47.5272 23.59,0 36.56,-24.297 36.56,-47.5272 0,-23.2344 -12.97,-47.5312 -36.56,-47.5312"
         style="fill:#4fbe37;fill-opacity:1;fill-rule:nonzero;stroke:none"
         id="path74"
         inkscape:connector-curvature="0" /><path
         d="m 1312.27,123.516 1.98,-9.18 c 5.22,7.019 13.14,11.699 21.06,11.699 16.21,0 23.41,-11.875 23.41,-32.2264 0,-12.7852 0,-51.6797 1.44,-60.3125 l -21.79,0 c 0.37,2.8711 0.9,23.9453 0.9,27.3633 0,3.9648 -0.35,21.25 -0.35,27.0117 0,14.3949 -2.88,19.8049 -10.63,19.8049 -6.3,0 -9.9,-4.688 -12.78,-8.8283 l 0,-30.9649 c 0,-11.5273 0.18,-23.0469 1.08,-34.3867 l -21.43,0 c 0.18,9.0039 0.54,28.9844 0.54,43.3906 0,16.1992 -1.08,41.2263 -2.34,46.6293 l 18.91,0"
         style="fill:#4fbe37;fill-opacity:1;fill-rule:nonzero;stroke:none"
         id="path76"
         inkscape:connector-curvature="0" /><path
         d="m 1498.56,135.398 c -5.58,5.579 -14.4,12.247 -24.66,12.247 -23.59,0 -31.33,-28.27 -31.33,-50.77 0,-31.5156 14.04,-48.6133 32.22,-48.6133 9.73,0 17.83,6.1133 21.61,10.2539 l 8.1,-8.1054 c -4.14,-5.7618 -17.82,-19.4336 -35.29,-19.4336 -24.48,0 -51.13,21.2422 -51.13,60.1367 0,34.3867 21.25,72.3827 60.32,72.3827 9,0 15.84,-1.445 20.16,-3.43 l 0,-24.668"
         style="fill:#4fbe37;fill-opacity:1;fill-rule:nonzero;stroke:none"
         id="path78"
         inkscape:connector-curvature="0" /><path
         d="m 1542.83,111.641 c -9.54,0 -14.95,-15.4887 -14.95,-33.1332 0,-17.6484 5.41,-33.1367 14.95,-33.1367 9.54,0 14.94,15.4883 14.94,33.1367 0,17.6445 -5.4,33.1332 -14.94,33.1332 z m 0,-80.6644 c -23.59,0 -36.55,24.2968 -36.55,47.5312 0,23.2302 12.96,47.5272 36.55,47.5272 23.59,0 36.55,-24.297 36.55,-47.5272 0,-23.2344 -12.96,-47.5312 -36.55,-47.5312"
         style="fill:#4fbe37;fill-opacity:1;fill-rule:nonzero;stroke:none"
         id="path80"
         inkscape:connector-curvature="0" /><path
         d="m 1639.68,33.4961 -1.98,9.1797 c -5.23,-7.0313 -13.15,-11.6992 -21.07,-11.6992 -16.21,0 -23.41,11.875 -23.41,32.2265 0,12.7735 0,51.6799 -1.44,60.3129 l 21.79,0 c -0.36,-2.871 -0.9,-23.9457 -0.9,-27.3637 0,-3.9648 0.36,-21.25 0.36,-27.0117 0,-14.4062 2.88,-19.8047 10.62,-19.8047 6.3,0 9.9,4.6875 12.79,8.8282 l 0,30.957 c 0,11.5239 -0.19,23.0469 -1.09,34.3949 l 21.43,0 c -0.18,-9.004 -0.54,-28.9847 -0.54,-43.3871 0,-16.2031 1.08,-41.2422 2.34,-46.6328 l -18.9,0"
         style="fill:#4fbe37;fill-opacity:1;fill-rule:nonzero;stroke:none"
         id="path82"
         inkscape:connector-curvature="0" /><path
         d="m 1691.68,123.516 1.99,-9.18 c 5.22,7.019 13.14,11.699 21.06,11.699 16.21,0 23.41,-11.875 23.41,-32.2264 0,-12.7852 0,-51.6797 1.44,-60.3125 l -21.79,0 c 0.36,2.8711 0.9,23.9453 0.9,27.3633 0,3.9648 -0.36,21.25 -0.36,27.0117 0,14.3949 -2.88,19.8049 -10.62,19.8049 -6.3,0 -9.9,-4.688 -12.78,-8.8283 l 0,-30.9649 c 0,-11.5273 0.18,-23.0469 1.08,-34.3867 l -21.43,0 c 0.18,9.0039 0.54,28.9844 0.54,43.3906 0,16.1992 -1.08,41.2263 -2.34,46.6293 l 18.9,0"
         style="fill:#4fbe37;fill-opacity:1;fill-rule:nonzero;stroke:none"
         id="path84"
         inkscape:connector-curvature="0" /><path
         d="m 1796.84,109.473 -15.13,0 c -0.18,-3.594 -0.54,-10.4496 -0.54,-22.8714 l 0,-25.1953 c 0,-10.9961 3.24,-14.9532 8.82,-14.9532 1.26,0 5.41,0.3633 7.2,0.7149 l 0,-12.4219 c -5.94,-2.8711 -11.16,-3.7695 -14.4,-3.7695 -14.23,0 -21.07,9.7148 -21.07,22.5 0,8.8281 -0.18,48.2614 -0.71,55.9964 l -11.35,0 0,14.043 11.7,0 c 0,2.343 0.54,16.386 -0.35,27.91 l 20.7,0 c -0.18,-3.965 -0.54,-7.383 -0.54,-18.008 0,-1.973 0.72,-6.301 0.36,-9.902 l 15.31,0 0,-14.043"
         style="fill:#4fbe37;fill-opacity:1;fill-rule:nonzero;stroke:none"
         id="path86"
         inkscape:connector-curvature="0" /><path
         d="m 1821.12,123.516 c 2.35,-12.969 11.53,-46.0941 17.11,-60.1371 5.58,14.043 11.53,43.7501 13.32,60.1371 l 18.73,0 C 1863.44,91.4648 1854.43,59.9609 1841.65,29.8828 1831.93,7.01953 1820.95,0 1806.72,0 c -1.8,0 -4.68,0.359375 -7.74,1.26172 l 0,17.82028 c 3.6,-2.1484 7.2,-2.8711 10.26,-2.8711 9,0 12.06,5.5743 19.45,19.8047 -10.45,28.9844 -23.23,57.2461 -30.07,87.5004 l 22.5,0"
         style="fill:#4fbe37;fill-opacity:1;fill-rule:nonzero;stroke:none"
         id="path88"
         inkscape:connector-curvature="0" /><path
         d="m 1876.38,11.8867 c 3.06,2.3321 14.04,11.7071 13.68,20.8867 -6.66,1.4454 -10.8,6.4844 -10.8,12.2461 0,6.4844 5.04,11.5235 12.06,11.5235 7.93,0 13.15,-7.0313 13.15,-15.3125 0,-10.8008 -6.48,-24.1211 -22.87,-35.46878 l -5.22,6.12498"
         style="fill:#4fbe37;fill-opacity:1;fill-rule:nonzero;stroke:none"
         id="path90"
         inkscape:connector-curvature="0" /><path
         d="m 2041.09,143.32 c -8.09,1.446 -20.52,1.981 -29.7,2.52 0,-21.426 -0.36,-42.664 -0.36,-64.1017 0,-15.1172 0.36,-32.2266 1.08,-48.2422 l -24.84,0 c 0.71,28.0859 1.43,43.2031 1.43,68.7699 0,14.589 0.36,28.996 -0.17,43.574 -14.06,-0.352 -17.84,-0.723 -29.9,-2.52 l 0,18.731 82.46,0 0,-18.731"
         style="fill:#4fbe37;fill-opacity:1;fill-rule:nonzero;stroke:none"
         id="path92"
         inkscape:connector-curvature="0" /><path
         d="m 2074.74,162.051 c 11.52,-20.528 19.26,-40.332 28.99,-60.5 5.94,-12.4299 7.02,-15.4768 8.46,-20.5276 l 0.36,0.3633 c -1.26,26.6403 -1.62,53.6523 -2.52,80.6643 l 20.7,0 c -0.35,-11.883 -0.9,-45.742 -0.9,-76.6994 0,-21.4258 0.37,-41.418 0.73,-51.8555 l -16.2,0 c -2.17,5.2148 -3.25,7.3828 -9.19,19.6172 l -29.53,61.3987 c -3.24,6.843 -4.14,10.273 -4.86,14.043 l -0.36,0 c 0,-31.68 0.18,-63.3792 1.44,-95.0589 l -21.07,0 c 0.55,19.8047 0.55,45.3711 0.55,68.0549 0,16.203 -0.19,44.66 -1.09,60.5 l 24.49,0"
         style="fill:#4fbe37;fill-opacity:1;fill-rule:nonzero;stroke:none"
         id="path94"
         inkscape:connector-curvature="0" /></g></g></svg>