<?xml version="1.0" encoding="UTF-8" standalone="no"?>
<!-- Created with Inkscape (http://www.inkscape.org/) -->

<svg
   xmlns:dc="http://purl.org/dc/elements/1.1/"
   xmlns:cc="http://creativecommons.org/ns#"
   xmlns:rdf="http://www.w3.org/1999/02/22-rdf-syntax-ns#"
   xmlns:svg="http://www.w3.org/2000/svg"
   xmlns="http://www.w3.org/2000/svg"
   xmlns:sodipodi="http://sodipodi.sourceforge.net/DTD/sodipodi-0.dtd"
   xmlns:inkscape="http://www.inkscape.org/namespaces/inkscape"
   width="228"
   height="228"
   viewBox="0 0 228 228.00001"
   id="svg4206"
   version="1.1"
   inkscape:version="0.91 r13725"
   sodipodi:docname="favicon-228.svg">
  <defs
     id="defs4208" />
  <sodipodi:namedview
     id="base"
     pagecolor="#ffffff"
     bordercolor="#666666"
     borderopacity="1.0"
     inkscape:pageopacity="0.0"
     inkscape:pageshadow="2"
     inkscape:zoom="1.979899"
     inkscape:cx="-29.096721"
     inkscape:cy="52.738929"
     inkscape:document-units="px"
     inkscape:current-layer="layer1"
     showgrid="false"
     fit-margin-top="0"
     fit-margin-left="0"
     fit-margin-right="0"
     fit-margin-bottom="0"
     units="px"
     inkscape:window-width="1920"
     inkscape:window-height="1051"
     inkscape:window-x="0"
     inkscape:window-y="0"
     inkscape:window-maximized="1" />
  <metadata
     id="metadata4211">
    <rdf:RDF>
      <cc:Work
         rdf:about="">
        <dc:format>image/svg+xml</dc:format>
        <dc:type
           rdf:resource="http://purl.org/dc/dcmitype/StillImage" />
        <dc:title></dc:title>
      </cc:Work>
    </rdf:RDF>
  </metadata>
  <g
     inkscape:label="Layer 1"
     inkscape:groupmode="layer"
     id="layer1"
     transform="translate(-410.49897,-690.01793)">
    <g
       transform="matrix(0.23387649,0,0,-0.23387649,410.49897,904.43346)"
       id="g4754">
      <title
         id="title4756">icon</title>
      <path
         inkscape:connector-curvature="0"
         id="path4758"
         style="fill:#155196;fill-opacity:1;fill-rule:nonzero;stroke:none"
         d="m 304.059,468.266 c -1.75,24.043 16.332,44.972 40.39,46.718 24.067,1.75 44.996,-16.347 46.742,-40.41 1.75,-24.062 -16.347,-44.976 -40.41,-46.722 -24.047,-1.731 -44.976,16.332 -46.722,40.414" />
      <path
         inkscape:connector-curvature="0"
         id="path4760"
         style="fill:#155196;fill-opacity:1;fill-rule:nonzero;stroke:none"
         d="m 816.723,468.266 c 1.75,24.043 -16.352,44.972 -40.399,46.718 -24.082,1.75 -44.988,-16.347 -46.738,-40.41 -1.75,-24.062 16.352,-44.976 40.391,-46.722 24.066,-1.731 45,16.332 46.746,40.414" />
      <path
         inkscape:connector-curvature="0"
         id="path4762"
         style="fill:#155196;fill-opacity:1;fill-rule:nonzero;stroke:none"
         d="m 960.637,399.77 c -5.137,18.945 -31.289,21.828 -54.348,15.824 -18.203,-4.739 -81.531,-22.317 -137.754,-18.235 -40.39,2.918 -79.887,36.532 -104.453,59.536 24.406,28.132 55.895,58.328 63.121,66.781 10.434,12.172 12.168,31.293 3.481,39.98 -8.688,8.688 -24.332,3.442 -39.981,-6.976 -15.609,-10.414 -74.715,-69.922 -131.082,-69.922 -56.348,0 -117.383,59.508 -133.027,69.922 -15.645,10.418 -38.25,8.687 -46.942,0 -8.683,-8.688 0.02,-20.832 10.457,-33.004 7.391,-8.637 40.059,-39.946 64.657,-68.586 -24.676,-22.906 -63.18,-54.891 -102.528,-57.731 -56.222,-4.082 -119.562,13.496 -137.75,18.235 -23.058,6.004 -49.203,3.121 -54.351,-15.824 -3.219,-11.84 6.832,-24.879 20.332,-33.688 13.433,-8.762 83.086,-22.297 102.676,-52.258 19.582,-29.945 22.57,-261.6287 40.812,-269.3904 13.305,-5.6836 36.496,-5.6836 49.102,0.7344 17.679,8.9648 47.5,261.734 62.546,294.195 8.333,17.922 29.293,44.723 48,67.313 16.102,-75.496 33.731,-356.7268 50.708,-362.6057 12.835,-4.4336 38.394,-4.4336 48.671,0 16.743,7.2461 35.079,295.8907 51.446,365.9177 19.355,-23.23 41.996,-51.804 50.742,-70.625 15.055,-32.461 44.863,-285.2302 62.527,-294.195 12.617,-6.418 35.805,-6.418 49.117,-0.7344 18.227,7.7617 21.215,239.4454 40.817,269.3904 19.594,29.961 89.238,43.496 102.664,52.258 13.508,8.809 23.543,21.848 20.34,33.688" />
      <path
         inkscape:connector-curvature="0"
         id="path4764"
         style="fill:#155196;fill-opacity:1;fill-rule:nonzero;stroke:none"
         d="m 516.703,560.973 c 0,24.132 19.559,43.672 43.692,43.672 24.097,0 43.679,-19.54 43.679,-43.672 0,-24.121 -19.582,-43.684 -43.679,-43.684 -24.133,0 -43.692,19.563 -43.692,43.684" />
      <path
         inkscape:connector-curvature="0"
         id="path4766"
         style="fill:#4fbe37;fill-opacity:1;fill-rule:nonzero;stroke:none"
         d="m 969.348,557.891 c 21.234,-33.688 -23.223,-46.328 -57.18,-38.575 -28.441,6.485 -307.34,155.61 -349.16,159.454 C 521.336,682.574 270.453,528.324 242.805,513.523 202.18,491.805 166.305,493.883 128.793,513.328 116.406,519.785 20.8438,570.234 0,584.313 c 20.8438,19.464 310.902,193.613 344.668,210.542 38.844,19.481 61.988,29.7 104.691,13.754 C 478.977,797.52 960.547,571.82 969.348,557.891" />
      <path
         inkscape:connector-curvature="0"
         id="path4768"
         style="fill:#4fbe37;fill-opacity:1;fill-rule:nonzero;stroke:none"
         d="m 110.023,341.566 c 10.868,-1.605 62.149,-23.707 82.454,-34.164 48.828,-25.148 51.359,-50.148 56.929,-90.832 5.942,-43.347 11.063,-124.1208 11.914,-154.7262 -20.425,8.7617 -100.422,75.7072 -119.511,92.2072 -14.797,12.824 -31.344,21.972 -31.317,41.847 0.028,7.586 -3.465,127.012 -0.469,145.668" />
    </g>
  </g>
</svg>
