<?xml version="1.0" encoding="UTF-8" standalone="no"?>
<!-- Created with Inkscape (http://www.inkscape.org/) -->

<svg
   xmlns:dc="http://purl.org/dc/elements/1.1/"
   xmlns:cc="http://creativecommons.org/ns#"
   xmlns:rdf="http://www.w3.org/1999/02/22-rdf-syntax-ns#"
   xmlns:svg="http://www.w3.org/2000/svg"
   xmlns="http://www.w3.org/2000/svg"
   xmlns:sodipodi="http://sodipodi.sourceforge.net/DTD/sodipodi-0.dtd"
   xmlns:inkscape="http://www.inkscape.org/namespaces/inkscape"
   id="svg2"
   version="1.1"
   inkscape:version="0.91 r13725"
   xml:space="preserve"
   width="304.54999"
   height="102.0625"
   viewBox="0 0 304.54999 102.0625"
   sodipodi:docname="HFH_Primary_LOGO_CMYK.svg"><metadata
     id="metadata8"><rdf:RDF><cc:Work
         rdf:about=""><dc:format>image/svg+xml</dc:format><dc:type
           rdf:resource="http://purl.org/dc/dcmitype/StillImage" /><dc:title></dc:title></cc:Work></rdf:RDF></metadata><defs
     id="defs6" /><sodipodi:namedview
     pagecolor="#ffffff"
     bordercolor="#666666"
     borderopacity="1"
     objecttolerance="10"
     gridtolerance="10"
     guidetolerance="10"
     inkscape:pageopacity="0"
     inkscape:pageshadow="2"
     inkscape:window-width="1920"
     inkscape:window-height="1051"
     id="namedview4"
     showgrid="false"
     inkscape:zoom="1.2510262"
     inkscape:cx="152.27499"
     inkscape:cy="51.03125"
     inkscape:window-x="0"
     inkscape:window-y="0"
     inkscape:window-maximized="1"
     inkscape:current-layer="g10" /><g
     id="g10"
     inkscape:groupmode="layer"
     inkscape:label="ink_ext_XXXXXX"
     transform="matrix(1.25,0,0,-1.25,0,102.0625)"><g
       id="g12"
       transform="scale(0.1,0.1)"><path
         d="m 304.059,468.266 c -1.75,24.043 16.332,44.972 40.39,46.718 24.067,1.75 44.996,-16.347 46.742,-40.41 1.75,-24.062 -16.347,-44.976 -40.41,-46.722 -24.047,-1.731 -44.976,16.332 -46.722,40.414"
         style="fill:#155196;fill-opacity:1;fill-rule:nonzero;stroke:none"
         id="path14"
         inkscape:connector-curvature="0" /><path
         d="m 816.723,468.266 c 1.75,24.043 -16.352,44.972 -40.399,46.718 -24.082,1.75 -44.988,-16.347 -46.738,-40.41 -1.75,-24.062 16.352,-44.976 40.391,-46.722 24.066,-1.731 45,16.332 46.746,40.414"
         style="fill:#155196;fill-opacity:1;fill-rule:nonzero;stroke:none"
         id="path16"
         inkscape:connector-curvature="0" /><path
         d="m 960.637,399.77 c -5.137,18.945 -31.289,21.828 -54.348,15.824 -18.203,-4.739 -81.531,-22.317 -137.754,-18.235 -40.39,2.918 -79.887,36.532 -104.453,59.536 24.406,28.132 55.895,58.328 63.121,66.781 10.434,12.172 12.168,31.293 3.481,39.98 -8.688,8.688 -24.332,3.442 -39.981,-6.976 -15.609,-10.414 -74.715,-69.922 -131.082,-69.922 -56.348,0 -117.383,59.508 -133.027,69.922 -15.645,10.418 -38.25,8.687 -46.942,0 -8.683,-8.688 0.02,-20.832 10.457,-33.004 7.391,-8.637 40.059,-39.946 64.657,-68.586 -24.676,-22.906 -63.18,-54.891 -102.528,-57.731 -56.222,-4.082 -119.562,13.496 -137.75,18.235 -23.058,6.004 -49.203,3.121 -54.351,-15.824 -3.219,-11.84 6.832,-24.879 20.332,-33.688 13.433,-8.762 83.086,-22.297 102.676,-52.258 19.582,-29.945 22.57,-261.6287 40.812,-269.3904 13.305,-5.6836 36.496,-5.6836 49.102,0.7344 17.679,8.9648 47.5,261.734 62.546,294.195 8.333,17.922 29.293,44.723 48,67.313 16.102,-75.496 33.731,-356.7268 50.708,-362.6057 12.835,-4.4336 38.394,-4.4336 48.671,0 16.743,7.2461 35.079,295.8907 51.446,365.9177 19.355,-23.23 41.996,-51.804 50.742,-70.625 15.055,-32.461 44.863,-285.2302 62.527,-294.195 12.617,-6.418 35.805,-6.418 49.117,-0.7344 18.227,7.7617 21.215,239.4454 40.817,269.3904 19.594,29.961 89.238,43.496 102.664,52.258 13.508,8.809 23.543,21.848 20.34,33.688"
         style="fill:#155196;fill-opacity:1;fill-rule:nonzero;stroke:none"
         id="path18"
         inkscape:connector-curvature="0" /><path
         d="m 516.703,560.973 c 0,24.132 19.559,43.672 43.692,43.672 24.097,0 43.679,-19.54 43.679,-43.672 0,-24.121 -19.582,-43.684 -43.679,-43.684 -24.133,0 -43.692,19.563 -43.692,43.684"
         style="fill:#155196;fill-opacity:1;fill-rule:nonzero;stroke:none"
         id="path20"
         inkscape:connector-curvature="0" /><path
         d="m 969.348,557.891 c 21.234,-33.688 -23.223,-46.328 -57.18,-38.575 -28.441,6.485 -307.34,155.61 -349.16,159.454 C 521.336,682.574 270.453,528.324 242.805,513.523 202.18,491.805 166.305,493.883 128.793,513.328 116.406,519.785 20.8438,570.234 0,584.313 c 20.8438,19.464 310.902,193.613 344.668,210.542 38.844,19.481 61.988,29.7 104.691,13.754 C 478.977,797.52 960.547,571.82 969.348,557.891"
         style="fill:#4fbe37;fill-opacity:1;fill-rule:nonzero;stroke:none"
         id="path22"
         inkscape:connector-curvature="0" /><path
         d="m 110.023,341.566 c 10.868,-1.605 62.149,-23.707 82.454,-34.164 48.828,-25.148 51.359,-50.148 56.929,-90.832 5.942,-43.347 11.063,-124.1208 11.914,-154.7262 -20.425,8.7617 -100.422,75.7072 -119.511,92.2072 -14.797,12.824 -31.344,21.972 -31.317,41.847 0.028,7.586 -3.465,127.012 -0.469,145.668"
         style="fill:#4fbe37;fill-opacity:1;fill-rule:nonzero;stroke:none"
         id="path24"
         inkscape:connector-curvature="0" /><path
         d="m 2391.67,185.703 10.06,0 c 6.71,0 8.86,2.371 8.86,7.207 0,4.227 -3.16,6.594 -7.5,6.594 l -11.42,0 0,-13.801 z m 0,-23.762 -6.14,0 0,42.696 16.28,0 c 9.97,0 14.89,-4.032 14.89,-12.129 0,-7.695 -5.02,-10.938 -11.13,-11.738 l 12.33,-18.829 -6.81,0 -11.55,18.633 -7.87,0 0,-18.633 z m 7.96,-9.949 c 17,0 30.09,13.406 30.09,31.141 0,17.472 -13.09,30.976 -30.09,30.976 -17.24,0 -30.25,-13.504 -30.25,-30.976 0,-17.735 13.01,-31.141 30.25,-31.141 z m 0,67.625 c 20.04,0 36.8,-15.762 36.8,-36.484 0,-20.906 -16.76,-36.68 -36.8,-36.68 -20.07,0 -36.96,15.774 -36.96,36.68 0,20.722 16.89,36.484 36.96,36.484"
         style="fill:#155196;fill-opacity:1;fill-rule:nonzero;stroke:none"
         id="path26"
         inkscape:connector-curvature="0" /><path
         d="m 1163.16,578.719 c -1.75,-21.461 -2.18,-46.422 -2.18,-73.145 l 0,-50.379 c 9.64,-0.449 19.26,-0.879 33.29,-0.879 14.03,0 23.65,0.43 33.27,0.879 l 0,50.379 c 0,26.723 -0.43,51.684 -2.17,73.145 l 82.79,0 c -4.37,-45.11 -4.37,-81.918 -4.37,-156.379 0,-74.465 0,-111.277 4.37,-156.395 l -82.79,0 c 1.74,21.446 2.17,46.453 2.17,73.153 l 0,63.953 c -9.62,0.445 -19.24,0.883 -33.27,0.883 -14.03,0 -23.65,-0.438 -33.29,-0.883 l 0,-63.953 c 0,-26.7 0.43,-51.707 2.18,-73.153 l -82.8,0 c 4.38,45.118 4.38,81.93 4.38,156.395 0,74.461 0,111.269 -4.38,156.379 l 82.8,0"
         style="fill:#155196;fill-opacity:1;fill-rule:nonzero;stroke:none"
         id="path28"
         inkscape:connector-curvature="0" /><path
         d="m 1441.32,379.852 c -27.56,-7.016 -44.67,-24.098 -44.67,-46 0,-15.34 9.64,-27.164 23.67,-27.164 9.18,0 18.38,5.71 21,9.64 l 0,63.524 z m -95.05,108.632 c 6.13,0.875 29.8,3.496 46,3.496 90.68,0 118.28,-35.468 118.28,-94.171 l 0,-54.762 c 0,-21.02 0,-44.699 11.39,-77.102 l -69.65,0 c -5.25,7.016 -6.99,11.828 -7.47,13.575 -11.81,-8.758 -28,-17.071 -49.03,-17.071 -42.5,0 -70.12,29.348 -70.12,66.141 0,40.301 31.97,67.469 73.61,81.039 l 36.36,11.84 c -0.44,15.328 -10.51,28.469 -31.1,28.469 -14.03,0 -35.93,-6.563 -58.27,-22.77 l 0,61.316"
         style="fill:#155196;fill-opacity:1;fill-rule:nonzero;stroke:none"
         id="path30"
         inkscape:connector-curvature="0" /><path
         d="m 1619.4,327.27 c 0,-12.711 4.81,-22.766 18.84,-22.766 17.96,0 30.67,18.387 30.67,70.516 0,37.242 -9.67,69.218 -31.56,69.218 -11.82,0 -17.95,-7.441 -17.95,-17.953 l 0,-99.015 z m 0,251.449 0,-98.989 c 10.94,6.563 26.74,12.25 42.5,12.25 41.6,0 80.6,-30.652 80.6,-110.378 0,-61.778 -33.74,-120.899 -95.93,-120.899 -16.66,0 -35.94,5.676 -56.53,21.887 l -24.53,-21.02 -21.02,12.707 c 3.95,28.028 3.95,57.809 3.95,89.371 l 0,125.711 c 0,16.215 0,34.176 -4.39,89.36 l 75.35,0"
         style="fill:#155196;fill-opacity:1;fill-rule:nonzero;stroke:none"
         id="path32"
         inkscape:connector-curvature="0" /><path
         d="m 1841.27,486.719 c -0.85,-22.754 -0.85,-56.055 -0.85,-103.356 0,-59.59 0,-89.39 3.94,-117.418 l -78.87,0 c 3.95,28.028 3.95,57.828 3.95,89.375 l 0,42.047 c 0,31.547 0,61.324 -3.95,89.352 l 75.78,0 z m -36.34,95.094 c 21.89,0 39.43,-17.547 39.43,-39.446 0,-21.898 -17.54,-39.418 -39.43,-39.418 -21.92,0 -39.44,17.52 -39.44,39.418 0,21.899 17.52,39.446 39.44,39.446"
         style="fill:#155196;fill-opacity:1;fill-rule:nonzero;stroke:none"
         id="path34"
         inkscape:connector-curvature="0" /><path
         d="m 1962.19,553.758 c -0.88,-13.567 -1.34,-39.434 -1.34,-67.039 l 32.89,0 0,-42.028 -32.89,0 0,-110.41 c 0,-17.953 6.58,-28.031 24.12,-28.031 2.65,0 5.25,0 9.2,0.438 l 0,-39.422 c -14.46,-4.817 -29.34,-6.563 -44.24,-6.563 -19.71,0 -35.49,6.992 -47.33,21.016 -9.2,10.965 -12.69,29.344 -12.69,51.699 l 0,111.273 -25.41,0 0,42.028 25.41,0 c 0,27.605 -0.43,53.472 -1.33,67.039 l 73.61,0"
         style="fill:#155196;fill-opacity:1;fill-rule:nonzero;stroke:none"
         id="path36"
         inkscape:connector-curvature="0" /><path
         d="m 2131.84,379.852 c -27.62,-7.016 -44.69,-24.098 -44.69,-46 0,-15.34 9.65,-27.164 23.66,-27.164 9.19,0 18.4,5.71 21.03,9.64 l 0,63.524 z m -95.08,108.632 c 6.16,0.875 29.81,3.496 46.02,3.496 90.67,0 118.28,-35.468 118.28,-94.171 l 0,-54.762 c 0,-21.02 0,-44.699 11.38,-77.102 l -69.64,0 c -5.26,7.016 -7.01,11.828 -7.44,13.575 -11.84,-8.758 -28.07,-17.071 -49.09,-17.071 -42.5,0 -70.06,29.348 -70.06,66.141 0,40.301 31.98,67.469 73.56,81.039 l 36.39,11.84 c -0.46,15.328 -10.53,28.469 -31.12,28.469 -14.02,0 -35.91,-6.563 -58.28,-22.77 l 0,61.316"
         style="fill:#155196;fill-opacity:1;fill-rule:nonzero;stroke:none"
         id="path38"
         inkscape:connector-curvature="0" /><path
         d="m 2319.64,553.758 c -0.87,-13.567 -1.3,-39.434 -1.3,-67.039 l 32.84,0 0,-42.028 -32.84,0 0,-110.41 c 0,-17.953 6.56,-28.031 24.09,-28.031 2.63,0 5.25,0 9.19,0.438 l 0,-39.422 c -14.46,-4.817 -29.35,-6.563 -44.24,-6.563 -19.72,0 -35.49,6.992 -47.32,21.016 -9.19,10.965 -12.69,29.344 -12.69,51.699 l 0,111.273 -25.43,0 0,42.028 25.43,0 c 0,27.605 -0.45,53.472 -1.33,67.039 l 73.6,0"
         style="fill:#155196;fill-opacity:1;fill-rule:nonzero;stroke:none"
         id="path40"
         inkscape:connector-curvature="0" /><path
         d="m 1151.67,189.844 c -0.95,0.722 -4.04,2.383 -9.24,2.383 -9.97,0 -14.72,-7.59 -14.72,-15.676 0,-4.727 1.42,-9.492 2.37,-11.875 l 17.79,0 0,-22.762 -18.02,0 0,-48.4179 c 0,-17.0781 0,-33.2148 2.12,-48.3984 l -42.72,0 c 2.14,15.1836 2.14,31.3203 2.14,48.3984 l 0,48.4179 -13.05,0 0,22.762 13.05,0 0,9.269 c 0,14.016 2.38,23.485 13.55,32.754 9.48,7.586 21.34,10.203 31.77,10.203 5.72,0 11.88,-0.957 14.96,-2.148 l 0,-24.91"
         style="fill:#155196;fill-opacity:1;fill-rule:nonzero;stroke:none"
         id="path42"
         inkscape:connector-curvature="0" /><path
         d="m 1192.34,104.891 c 0,-28.7113 6.17,-38.9262 13.29,-38.9262 7.14,0 13.28,10.2149 13.28,38.9262 0,28.711 -6.14,38.918 -13.28,38.918 -7.12,0 -13.29,-10.207 -13.29,-38.918 z m 68.8,0 c 0,-40.3402 -26.56,-62.6449 -55.51,-62.6449 -28.96,0 -55.52,22.3047 -55.52,62.6449 0,40.332 26.56,62.66 55.52,62.66 28.95,0 55.51,-22.328 55.51,-62.66"
         style="fill:#155196;fill-opacity:1;fill-rule:nonzero;stroke:none"
         id="path44"
         inkscape:connector-curvature="0" /><path
         d="m 1311.24,164.676 c 1.42,-4.254 3.08,-12.086 3.32,-15.875 8.3,11.129 18.28,18.75 30.13,18.75 2.62,0 4.04,-0.254 5.23,-0.727 l 0,-31.562 c -2.61,0.722 -5.94,0.957 -7.13,0.957 -18.04,0 -25.85,-16.621 -25.85,-42.7229 0,-17.0781 0,-33.2148 2.14,-48.3984 l -44.16,0 c 2.15,15.1836 2.15,31.3203 2.15,48.3984 l 0,22.7809 c 0,17.09 0,33.227 -4.03,48.399 l 38.2,0"
         style="fill:#155196;fill-opacity:1;fill-rule:nonzero;stroke:none"
         id="path46"
         inkscape:connector-curvature="0" /><path
         d="m 1476.4,214.52 c -0.97,-11.629 -1.19,-25.145 -1.19,-39.629 l 0,-27.286 c 5.21,-0.234 10.43,-0.468 18.03,-0.468 7.6,0 12.83,0.234 18.02,0.468 l 0,27.286 c 0,14.484 -0.2,28 -1.17,39.629 l 44.85,0 c -2.37,-24.442 -2.37,-44.352 -2.37,-84.707 0,-40.3325 0,-60.2935 2.37,-84.7153 l -44.85,0 c 0.97,11.6289 1.17,25.1445 1.17,39.6171 l 0,34.6482 c -5.19,0.235 -10.42,0.489 -18.02,0.489 -7.6,0 -12.82,-0.254 -18.03,-0.489 l 0,-34.6482 c 0,-14.4726 0.22,-27.9882 1.19,-39.6171 l -44.84,0 c 2.35,24.4218 2.35,44.3828 2.35,84.7153 0,40.355 0,60.265 -2.35,84.707 l 44.84,0"
         style="fill:#155196;fill-opacity:1;fill-rule:nonzero;stroke:none"
         id="path48"
         inkscape:connector-curvature="0" /><path
         d="m 1641.53,45.0977 c -1.66,3.5546 -2.85,7.5703 -3.54,10.6718 -8.81,-8.5547 -17.82,-13.5234 -30.13,-13.5234 -20.2,0 -33.46,14.7187 -33.46,37.5 l 0,36.5309 c 0,17.09 0,33.227 -2.17,48.399 l 40.59,0 0,-79.4924 c 0,-9.4688 3.79,-14.9414 10.68,-14.9414 5.95,0 12.11,4.2773 12.11,12.5781 l 0,33.4567 c 0,17.09 0,33.227 -2.13,48.399 l 42.7,0 c -2.15,-15.172 -2.15,-31.309 -2.15,-48.399 l 0,-22.7809 c 0,-17.0781 0,-33.2148 2.15,-48.3984 l -34.65,0"
         style="fill:#155196;fill-opacity:1;fill-rule:nonzero;stroke:none"
         id="path50"
         inkscape:connector-curvature="0" /><path
         d="m 1731.72,164.676 c 1.66,-3.555 2.84,-7.578 3.58,-10.645 8.77,8.047 19.45,13.52 31.31,13.52 12.83,0 20.88,-7.356 26.56,-15.199 8.57,7.578 18.06,15.199 33.48,15.199 23.26,0 32.05,-16.391 32.05,-39.875 l 0,-34.1799 c 0,-17.0781 0,-33.2148 2.11,-48.3984 l -42.68,0 c 2.11,15.1836 2.11,31.3203 2.11,48.3984 l 0,32.9879 c 0,8.313 -2.36,14.473 -9.71,14.473 -8.07,0 -12.6,-6.16 -12.6,-14.473 l 0,-32.9879 c 0,-17.0781 0,-33.2148 2.15,-48.3984 l -42.73,0 c 2.15,15.1836 2.15,31.3203 2.15,48.3984 l 0,33.4569 c 0,7.844 -2.39,14.004 -9.73,14.004 -6.66,0 -12.59,-5.461 -12.59,-12.578 l 0,-34.8829 c 0,-17.0781 0,-33.2148 2.14,-48.3984 l -42.71,0 c 2.13,15.1836 2.13,31.3203 2.13,48.3984 l 0,22.7809 c 0,17.09 0,33.227 -2.13,48.399 l 35.11,0"
         style="fill:#155196;fill-opacity:1;fill-rule:nonzero;stroke:none"
         id="path52"
         inkscape:connector-curvature="0" /><path
         d="m 1935.36,106.805 c -14.93,-3.809 -24.2,-13.0745 -24.2,-24.9417 0,-8.3008 5.23,-14.707 12.83,-14.707 4.96,0 9.98,3.0859 11.37,5.2343 l 0,34.4144 z m -51.49,58.847 c 3.34,0.45 16.13,1.899 24.94,1.899 49.12,0 64.07,-19.242 64.07,-51.039 l 0,-29.6487 c 0,-11.3945 0,-24.2266 6.15,-41.7656 l -37.72,0 c -2.83,3.7812 -3.81,6.3945 -4.02,7.3515 -6.43,-4.7539 -15.21,-9.2578 -26.58,-9.2578 -23.03,0 -37.99,15.918 -37.99,35.832 0,21.8246 17.32,36.5316 39.86,43.9066 l 19.71,6.406 c -0.23,8.309 -5.72,15.43 -16.85,15.43 -7.59,0 -19.48,-3.575 -31.57,-12.356 l 0,33.242"
         style="fill:#155196;fill-opacity:1;fill-rule:nonzero;stroke:none"
         id="path54"
         inkscape:connector-curvature="0" /><path
         d="m 2024.56,164.676 c 1.66,-3.555 2.83,-7.578 3.55,-10.645 8.79,8.52 17.8,13.52 30.14,13.52 20.17,0 33.45,-14.711 33.45,-37.5 l 0,-36.5549 c 0,-17.0781 0,-33.2148 2.15,-48.3984 l -42.71,0 c 2.15,15.1836 2.15,31.3203 2.15,48.3984 l 0,32.7539 c 0,7.352 -3.11,13.281 -10.24,13.281 -5.9,0 -12.56,-4.269 -12.56,-11.386 l 0,-34.6489 c 0,-17.0781 0,-33.2148 2.11,-48.3984 l -42.67,0 c 2.11,15.1836 2.11,31.3203 2.11,48.3984 l 0,22.7809 c 0,17.09 0,33.227 -2.11,48.399 l 34.63,0"
         style="fill:#155196;fill-opacity:1;fill-rule:nonzero;stroke:none"
         id="path56"
         inkscape:connector-curvature="0" /><path
         d="m 2148.91,164.676 c -0.48,-12.324 -0.48,-30.371 -0.48,-55.985 0,-32.273 0,-48.4097 2.14,-63.5933 l -42.71,0 C 2110,60.2813 2110,76.418 2110,93.4961 l 0,22.7809 c 0,17.09 0,33.227 -2.14,48.399 l 41.05,0 z m -19.7,51.523 c 11.87,0 21.36,-9.5 21.36,-21.363 0,-11.875 -9.49,-21.359 -21.36,-21.359 -11.84,0 -21.35,9.484 -21.35,21.359 0,11.863 9.51,21.363 21.35,21.363"
         style="fill:#155196;fill-opacity:1;fill-rule:nonzero;stroke:none"
         id="path58"
         inkscape:connector-curvature="0" /><path
         d="m 2216.53,201.004 c -0.49,-7.363 -0.7,-21.367 -0.7,-36.328 l 17.79,0 0,-22.762 -17.79,0 0,-59.7968 c 0,-9.7266 3.55,-15.1953 13.02,-15.1953 1.45,0 2.86,0 5,0.2344 l 0,-21.3555 c -7.83,-2.6094 -15.92,-3.5547 -23.98,-3.5547 -10.69,0 -19.22,3.7891 -25.61,11.375 -5,5.957 -6.89,15.8984 -6.89,28.0117 l 0,60.2812 -13.77,0 0,22.762 13.77,0 c 0,14.961 -0.24,28.965 -0.7,36.328 l 39.86,0"
         style="fill:#155196;fill-opacity:1;fill-rule:nonzero;stroke:none"
         id="path60"
         inkscape:connector-curvature="0" /><path
         d="m 2286.06,164.676 c 3.09,-18.496 12.09,-52.188 16.86,-67.6174 l 0.45,0 c 6.65,24.2184 11.65,51.4884 13.78,67.6174 l 33.92,0 c -7.82,-32.5 -25.63,-98.4768 -40.8,-129.5471 C 2302.43,19.2266 2290.56,0 2258.05,0 c -3.3,0 -8.29,0.242188 -11.37,1.19141 l 0,30.37109 c 2.11,-1.1914 7.35,-3.5547 13.29,-3.5547 12.34,0 20.63,10.207 20.63,18.9844 0,4.5 -0.95,7.3516 -10.43,32.5 -12.83,33.6988 -22.57,69.3088 -25.15,85.1838 l 41.04,0"
         style="fill:#155196;fill-opacity:1;fill-rule:nonzero;stroke:none"
         id="path62"
         inkscape:connector-curvature="0" /></g></g></svg>